<?xml version="1.0" encoding="UTF-8"?><svg id="Layer_2" xmlns="http://www.w3.org/2000/svg" viewBox="0 0 1080 284.9478"><g id="Components"><g id="_1ed2f6df-2356-43f7-b334-bb45db630a12_1"><path d="m175.0217,135.3263c-15.1562-13.0222-32.6238-20.3347-51.9838-21.7361l71.6337-66.2055V7.2471H8.7377v42.5613h122.5467L56.6951,118.5272l22.0499,37.182,2.1984-.7811c7.2882-2.6257,14.8261-3.9303,22.4043-3.9303,14.0208,0,26.2457,4.067,36.3123,12.0637,10.0504,7.981,14.9146,19.3118,14.9146,34.6535,0,13.2232-4.5985,23.9986-14.0692,32.9538-9.374,8.8668-22.5812,13.3604-39.2031,13.3604-15.559,0-28.7343-5.0495-39.2275-15.0031-10.4451-9.954-16.1549-23.2903-16.936-39.6465l-.1531-3.4063L0,196.2896l.1369,2.3997c1.4014,23.8698,11.2907,44.4301,29.3784,61.1161,18.0876,16.6944,42.3843,25.1424,72.1894,25.1424,30.377,0,54.7621-8.6731,72.431-25.7863,17.7092-17.1373,26.6887-38.0923,26.6887-62.2678,0-26.1653-8.6655-46.8784-25.8027-61.5674Z" style="fill:#212121;"/><path d="m583.2245,125.1929c-17.2663-16.2914-39.759-24.5383-66.8745-24.5383-20.5117,0-36.9161,4.647-48.8913,13.8519l16.6622-64.6999h114.1309V7.2447h-145.1523l-34.9592,134.0389-.6442,2.4479,2.3755.9103c4.8885,1.9086,11.7095,4.6465,20.4473,8.1983,8.778,3.5592,15.092,6.0237,18.9333,7.401l1.7314.6439,1.2723-1.3527c11.6854-12.2008,27.2444-18.3857,46.2903-18.3857,15.6072,0,28.7581,4.5825,39.1147,13.6262,10.2276,8.9793,15.4059,21.913,15.4059,38.43,0,15.1967-5.2024,27.5828-15.4462,36.8035-10.3323,9.3096-23.3382,14.0209-38.6475,14.0209-15.849,0-29.2094-4.8401-39.6707-14.3994-10.4451-9.5593-16.2756-22.2915-17.2902-37.8259l-.2497-3.5596-44.1561,13.1347.1932,2.3112c1.9811,22.5412,12.4505,41.9174,31.142,57.6534,18.5789,15.672,42.159,23.6044,70.0314,23.6044,29.5794,0,53.9407-9.028,72.431-26.8254,18.5146-17.8058,27.9127-40.202,27.9127-66.5604,0-27.7436-8.778-50.0513-26.0925-66.3672Z" style="fill:#212121;"/><path d="m310.3576.0059c-23.5476,0-43.9708,8.4799-60.6571,25.2146-16.7347,16.6866-25.2149,37.1579-25.2149,60.778s8.4559,44.0919,25.1906,60.8262c16.7347,16.7347,37.1579,25.191,60.6815,25.191,23.6444,0,44.0998-8.4804,60.778-25.2151,16.6622-16.7347,25.1021-37.1819,25.1021-60.8021,0-23.596-8.4399-44.0433-25.1021-60.7539C354.4574,8.4858,334.002.0059,310.3576.0059Zm31.4401,117.3116c-8.7461,8.6977-19.022,12.9421-31.4401,12.9421-12.249,0-22.831-4.3653-31.4318-12.9421-8.7299-8.6731-12.974-18.925-12.974-31.319,0-12.1281,4.3892-22.67,13.0143-31.3431,8.6089-8.6736,19.1909-13.0624,31.3915-13.0624,12.3699,0,22.6459,4.2679,31.3917,13.0624,8.6249,8.6972,13.014,19.2391,13.014,31.3431,0,12.2008-4.3648,22.7427-12.9656,31.319Z" style="fill:#212121;"/><path d="m754.6035,22.2659c0-6.5394-2.6011-11.8867-7.7876-16.0343C741.6295,2.0762,734.9614.0064,726.8277.0064c-9.7446,0-18.6837,1.9892-26.8175,5.9839-8.1417,3.9942-15.414,9.3013-21.7921,15.9213-6.3862,6.6278-11.8142,14.045-16.2837,22.2674-4.4695,8.2224-7.868,16.6458-10.1794,25.2628-2.3112,8.617-3.4709,16.8394-3.4709,24.6671,0,12.1285,3.3503,21.1801,10.0587,27.1719,6.7082,5.9918,15.3253,8.9793,25.8591,8.9793,7.8195,0,14.963-1.5543,21.4296-4.671,6.4669-3.1085,12.1686-7.1351,17.1213-12.0878,4.9448-4.9448,9.0196-10.0588,12.2087-15.3255l-4.7836-1.9165c-5.5889,8.303-11.1779,14.045-16.7588,17.242-5.589,3.1974-11.017,4.7919-16.2838,4.7919s-9.5431-1.8364-12.8127-5.5086c-3.2697-3.6722-4.9124-9.664-4.9124-17.9586,0-11.4921,1.4011-22.6297,4.1957-33.4051,2.7944-10.7753,6.5394-20.431,11.2504-28.9758,4.7111-8.5364,9.9779-15.2768,15.8085-20.2295,5.8227-4.9448,11.7658-7.4256,17.8382-7.4256,3.189,0,5.7821.5235,7.7792,1.5547,1.9892,1.0469,3.7125,2.3593,5.1542,3.9539-5.2748,1.2805-10.0262,4.067-14.2542,8.3836-4.2282,4.3004-6.3462,9.4222-6.3462,15.3254,0,3.6722,1.1517,6.6195,3.4709,8.8585,2.3115,2.2305,5.3071,3.3503,8.9796,3.3503,4.1555,0,7.8196-1.1998,11.0167-3.5917,3.1972-2.3923,5.7018-5.428,7.546-9.1002,1.828-3.6722,2.7543-7.4251,2.7543-11.2585Z" style="fill:#212121;"/><path d="m840.0874,106.3091L870.9719.0059c-4.6307,1.1113-9.4547,1.9086-14.4879,2.3918-5.0252.4748-10.421.7972-16.1628.958l-3.4802,12.8657c-.2998-3.8027-1.2003-6.9496-2.7451-9.3945-2.8749-4.5501-7.0225-6.821-12.4503-6.821-7.0306,0-14.0532,2.15-21.0676,6.4587-7.0304,4.3166-13.6501,10.0179-19.8835,17.121-6.225,7.111-11.7658,15.0837-16.6379,23.9426-4.8723,8.8668-8.6573,17.878-11.3713,27.0588-2.7141,9.1808-4.0748,17.9183-4.0748,26.2213,0,8.9395,2.0777,16.0825,6.225,21.4298,4.1554,5.3474,10.5419,8.0214,19.1587,8.0214,6.0721,0,11.9349-1.7558,17.6045-5.2673,5.6614-3.511,11.0895-9.3416,16.2838-17.4755,3.1008-4.88,6.1054-10.7354,9.0121-17.5555l-.991,3.6638c-1.6027,5.9112-2.6415,11.4193-3.1166,16.517-.4832,5.114.3141,9.4227,2.3999,12.9337,3.1891,4.7919,8.6168,7.1838,16.2756,7.1838,3.6641,0,7.3848-.7172,11.1295-2.1583,3.7529-1.4338,7.3044-3.9465,10.6626-7.5381,3.35-3.5916,6.1447-8.6573,8.3754-15.2046l5.9916-17.4755h-4.5501l-3.5917,10.767c-2.8752,8.303-5.6696,13.8116-8.3835,16.5253-2.714,2.7142-5.3474,4.067-7.9001,4.067-2.0778,0-3.3906-.6764-3.9542-2.0295-.5557-1.3606-.7169-3.0278-.4753-5.0333.2416-1.9887.6766-3.946,1.3207-5.8704Zm-13.2534-53.0933l.803-4.1255c-2.5609,10.2116-5.597,19.6338-9.1083,28.2509-3.5112,8.6171-7.1754,16.0421-11.0089,22.2753-3.8332,6.2252-7.5861,11.0491-11.2583,14.48-3.6722,3.4304-6.9419,5.1459-9.8169,5.1459-2.392,0-4.1879-1.2318-5.3877-3.7042-1.192-2.4808-1.7959-6.6681-1.7959-12.5793,0-8.4558.9584-17.1535,2.8751-26.0925,1.9165-8.9395,4.5098-17.5644,7.7874-25.8674,3.2616-8.2946,6.8937-15.7197,10.8882-22.259,3.9863-6.5472,8.0211-11.7339,12.0878-15.5668,4.0751-3.8335,7.9407-5.7505,11.6211-5.7505,3.8332,0,6.5875,1.917,8.2626,5.7505,1.5242,3.488,1.875,8.1772,1.0847,14.0396l-7.0338,26.0032Z" style="fill:#212121;"/><path d="m985.9015,28.6107c1.9086-3.4225,2.875-7.143,2.875-11.1293,0-4.9448-1.5624-9.1002-4.671-12.4589-3.1166-3.3419-7.5458-5.017-13.2879-5.017-5.5889,0-10.7751,1.4338-15.5668,4.3004-4.7917,2.8749-9.3015,7.7072-13.5294,14.4879-4.236,6.789-8.5367,15.8087-12.9337,27.0588-.408,1.0465-.8192,2.1248-1.232,3.2187l3.9863-15.5483c.9583-3.6722,1.6427-7.457,2.0374-11.3711.3947-3.9058.2416-7.546-.4751-10.8958-.7169-3.3503-2.3193-6.064-4.7917-8.1423-2.4805-2.0693-6.2656-3.1084-11.3713-3.1084-4.1555,0-8.2224.7166-12.2087,2.1505-3.9944,1.4333-7.6667,3.946-11.017,7.546-3.3582,3.5833-6.1447,8.5768-8.3834,14.9628l-6.2253,17.9586h4.5502l4.0669-11.2581c2.714-7.6591,5.3474-13.0064,7.9001-16.0421,2.553-3.0284,5.3474-4.5423,8.3836-4.5423,2.3999,0,3.8334.9501,4.3085,2.8671.4832,1.9165,0,5.2668-1.4335,10.0582l-28.734,103.2027h29.4506l8.9382-34.8629c1.8101-6.132,3.6196-11.8873,5.429-17.2175,4.3083-12.6918,8.4962-23.4672,12.571-32.3256,4.075-8.8589,8.1017-16.0018,12.0961-21.4298,3.9863-5.428,7.8198-9.3824,11.4839-11.8543,3.6722-2.4724,7.2722-3.713,10.7835-3.713.636,0,1.1998.0889,1.6749.2418.4753.1612.8779.4025,1.2001.7166-3.0362.8057-5.8306,2.1987-8.3835,4.1879-2.5528,2.005-4.6386,4.4292-6.225,7.3042-1.6027,2.8749-2.3999,6.0724-2.3999,9.5756,0,3.9942,1.1595,7.0304,3.4788,9.1081,2.3115,2.0698,5.4602,3.1085,9.4547,3.1085,3.9863,0,7.546-.9905,10.6544-2.9959,3.1166-1.9888,5.6293-4.703,7.546-8.1417Z" style="fill:#212121;"/><path d="m1073.5332,4.4292c-4.3086-2.9472-9.656-4.4292-16.0422-4.4292-9.7363,0-18.8364,2.0374-27.2922,6.1043-8.4642,4.0753-16.1631,9.5432-23.1132,16.4044-6.9419,6.8618-12.9254,14.5283-17.9586,22.9841-5.0255,8.472-8.899,17.1216-11.6049,25.9883-2.7221,8.8505-4.0751,17.1933-4.0751,25.0131,0,7.3528,1.5142,13.5295,4.5502,18.5627,3.0281,5.0255,7.2641,8.8186,12.6921,11.3716,5.4277,2.5525,11.492,3.8329,18.2002,3.8329,8.1339,0,15.5993-1.5621,22.3803-4.6705,6.7888-3.1168,12.8127-7.1434,18.0795-12.0961,5.2749-4.937,9.4948-10.0504,12.6919-15.3171l-3.8333-1.917c-6.2252,7.981-12.5309,13.4891-18.9093,16.5175-6.3862,3.0357-11.8945,4.5501-16.5253,4.5501-5.4277,0-9.7766-1.7155-13.0463-5.1463-3.2775-3.4304-4.9124-9.374-4.9124-17.8378,0-6.2147.5834-12.4792,1.7496-18.7897,4.1061-1.2192,8.3743-2.6054,12.8589-4.2026,7.1835-2.5447,14.3267-5.5809,21.4297-9.0919,7.103-3.5115,13.6501-7.5057,19.6338-11.9752,5.9838-4.4695,10.7351-9.4144,14.2463-14.8423,3.5111-5.428,5.2668-11.2585,5.2668-17.4838,0-6.064-2.1501-10.5739-6.4668-13.5294Zm-22.9841,32.3261c-3.6722,7.1027-8.4639,13.2876-14.3669,18.5627-4.3086,3.511-9.6238,6.821-15.9213,9.9294-4.0131,1.9811-8.2628,3.9095-12.7527,5.7905.1395-.6119.2726-1.2233.4231-1.8361,2.0696-8.4559,4.8239-16.5253,8.2545-24.1839,3.4307-7.6586,7.2238-14.5685,11.3792-20.7132,4.1477-6.1447,8.3837-10.9686,12.6841-14.4879,4.3167-3.511,8.303-5.2668,11.9752-5.2668,1.2723,0,2.2386.5638,2.8749,1.6752.6364,1.1192.9585,3.511.9585,7.1837,0,8.4637-1.8442,16.2432-5.5085,23.3463Z" style="fill:#212121;"/></g></g></svg>