<svg xmlns="http://www.w3.org/2000/svg" width="160" height="36" fill="none" xmlns:v="https://vecta.io/nano"><g fill-rule="evenodd"><path d="M1.974.838a4.63 4.63 0 0 1 6.447 1.137l9.252 13.367c1.466 2.095.957 4.982-1.137 6.449a4.63 4.63 0 0 1-6.447-1.137L.838 7.287C-.629 5.192-.12 2.305 1.974.838z" fill="url(#A)"/><path d="M11.295 14.143a4.63 4.63 0 0 1 6.447 1.137l9.252 13.367c1.466 2.095.957 4.982-1.137 6.449a4.63 4.63 0 0 1-6.447-1.137l-9.252-13.367c-1.466-2.095-.957-4.982 1.137-6.449z" fill="url(#B)"/><path d="M25.856.838c2.094 1.467 2.603 4.354 1.137 6.449l-9.252 13.367a4.63 4.63 0 0 1-6.447 1.137c-2.094-1.467-2.603-4.354-1.137-6.449l9.252-13.367A4.63 4.63 0 0 1 25.856.838z" fill="url(#C)"/><path d="M16.536 14.143c2.094 1.467 2.603 4.354 1.137 6.449L8.421 33.958a4.63 4.63 0 0 1-6.447 1.137C-.12 33.629-.629 30.742.838 28.647l9.252-13.367a4.63 4.63 0 0 1 6.447-1.137z" fill="url(#D)"/></g><path d="M13.948 22.562a4.63 4.63 0 0 0 4.627-4.629 4.63 4.63 0 0 0-4.627-4.629 4.63 4.63 0 0 0-4.627 4.629 4.63 4.63 0 0 0 4.627 4.629z" fill="#263856"/><path d="M23.268 9.257a4.63 4.63 0 0 0 4.627-4.629A4.63 4.63 0 0 0 23.268 0a4.63 4.63 0 0 0-4.628 4.629 4.63 4.63 0 0 0 4.628 4.629z" fill="#00bdbd"/><path d="M4.627 35.866a4.63 4.63 0 0 0 4.627-4.628 4.63 4.63 0 0 0-4.627-4.629A4.63 4.63 0 0 0 0 31.237a4.63 4.63 0 0 0 4.627 4.628z" fill="#ff5395"/><path fill-rule="evenodd" d="M48.973 19.535c0 3.973-2.7 6.607-6.784 6.607-4.416 0-7.238-3.281-7.238-8.437 0-5.089 2.866-8.426 7.238-8.426 3.541 0 6.109 1.987 6.685 5.179h-2.025c-.686-2.176-2.291-3.326-4.659-3.326-3.165 0-5.19 2.567-5.19 6.574 0 4.063 1.992 6.585 5.201 6.585 2.855 0 4.792-1.841 4.792-4.565v-.391h-4.493v-1.763h6.474v1.964zm8.035-4.319c-1.904 0-3.232 1.406-3.376 3.538h6.574c-.044-2.132-1.306-3.538-3.198-3.538zm3.143 7.433h1.903c-.575 2.065-2.413 3.326-5.024 3.326-3.309 0-5.379-2.411-5.379-6.216 0-3.783 2.103-6.239 5.379-6.239 3.221 0 5.179 2.31 5.179 6.049v.737h-8.577v.089c.1 2.377 1.417 3.884 3.442 3.884 1.538 0 2.579-.569 3.077-1.629zm5.047 3.114V13.731h1.815v1.897h.177c.598-1.328 1.76-2.109 3.586-2.109 2.678 0 4.172 1.596 4.172 4.453v7.79h-1.903v-7.321c0-2.165-.907-3.192-2.811-3.192s-3.132 1.283-3.132 3.393v7.121h-1.904zm18.128.212c-3.398 0-5.5-2.366-5.5-6.228 0-3.873 2.103-6.228 5.5-6.228s5.5 2.355 5.5 6.228c0 3.862-2.103 6.228-5.5 6.228zm0-1.73c2.258 0 3.53-1.652 3.53-4.498 0-2.857-1.273-4.498-3.53-4.498s-3.53 1.641-3.53 4.498c0 2.846 1.273 4.498 3.53 4.498zm8.488 1.518V13.731h1.815v1.897h.177c.542-1.339 1.737-2.109 3.331-2.109 1.616 0 2.745.859 3.298 2.109h.177c.642-1.272 2.003-2.109 3.652-2.109 2.435 0 3.796 1.406 3.796 3.929v8.315h-1.903v-7.868c0-1.775-.83-2.645-2.513-2.645-1.66 0-2.766 1.25-2.766 2.779v7.734h-1.904v-8.17c0-1.429-.985-2.344-2.49-2.344-1.56 0-2.767 1.362-2.767 3.058v7.455h-1.904zm24.48-10.547c-1.904 0-3.232 1.406-3.375 3.538h6.573c-.044-2.132-1.306-3.538-3.198-3.538zm3.143 7.433h1.904c-.576 2.065-2.413 3.326-5.025 3.326-3.309 0-5.378-2.411-5.378-6.216 0-3.783 2.102-6.239 5.378-6.239 3.221 0 5.179 2.31 5.179 6.049v.737h-8.576v.089c.099 2.377 1.416 3.884 3.441 3.884 1.539 0 2.579-.569 3.077-1.629zm5.157 3.114V8.954h1.904v16.808h-1.904zm5.644 0V13.731h1.904v12.031h-1.904zm.952-14.475a1.34 1.34 0 0 1-1.328-1.339 1.34 1.34 0 0 1 1.328-1.339c.731 0 1.328.603 1.328 1.339s-.597 1.339-1.328 1.339zm4.582 14.475V13.731h1.815v1.897h.177c.598-1.328 1.76-2.109 3.586-2.109 2.678 0 4.172 1.596 4.172 4.453v7.79h-1.904v-7.321c0-2.165-.907-3.192-2.811-3.192s-3.132 1.283-3.132 3.393v7.121h-1.903zm15.416-6.774l5.18-5.257h2.335l-5.135 5.156 5.478 6.875h-2.424l-4.471-5.636-1.14 1.071v4.565h-1.903V8.954h1.903v10.034h.177z" fill="#263856"/><defs><linearGradient id="A" x1="11.708" y1="16.53" x2="4.117" y2="6.039" gradientUnits="userSpaceOnUse"><stop stop-color="#832faf" stop-opacity="0"/><stop offset=".349" stop-color="#832faf" stop-opacity=".479"/><stop offset=".599" stop-color="#832faf" stop-opacity=".719"/><stop offset=".831" stop-color="#842faf" stop-opacity=".922"/><stop offset="1" stop-color="#842faf"/></linearGradient><linearGradient id="B" x1="16.348" y1="20.497" x2="24.969" y2="32.516" gradientUnits="userSpaceOnUse"><stop stop-color="#fff14c" stop-opacity="0"/><stop offset="1" stop-color="#ffca19"/></linearGradient><linearGradient id="C" x1="20.439" y1="7.442" x2="14.834" y2="15.813" gradientUnits="userSpaceOnUse"><stop stop-color="#00bdbd" stop-opacity="0"/><stop offset=".555" stop-color="#00bdbd" stop-opacity=".648"/><stop offset="1" stop-color="#00bdbd"/></linearGradient><linearGradient id="D" x1="7.225" y1="29.476" x2="14.1" y2="19.894" gradientUnits="userSpaceOnUse"><stop stop-color="#ff5395" stop-opacity="0"/><stop offset=".632" stop-color="#ff5395" stop-opacity=".872"/><stop offset="1" stop-color="#ff5395"/></linearGradient></defs></svg>