<svg xmlns="http://www.w3.org/2000/svg" width="30" height="67" viewBox="0 0 30 67" fill="none"><path d="M9.73243 10.1162C6.79467 10.1162 4.39746 12.5134 4.39746 15.4512C4.39746 18.3889 6.79467 20.7862 9.73243 20.7862C12.6702 20.7862 15.0674 18.3889 15.0674 15.4512C15.0674 12.5134 12.6937 10.1162 9.73243 10.1162ZM9.73243 19.329C7.59374 19.329 5.83108 17.5899 5.83108 15.4277C5.83108 13.289 7.57024 11.5263 9.73243 11.5263C11.8711 11.5263 13.6338 13.2655 13.6338 15.4277C13.6338 17.5899 11.8946 19.329 9.73243 19.329Z" fill="#6E0147"></path><path d="M29.6859 62.1026V62.0321L26.7716 43.9355C26.7481 43.7475 26.7246 43.536 26.7246 43.348C26.2311 35.7098 24.9385 28.0951 22.8468 20.786C22.7763 20.504 22.7528 20.2454 22.7998 19.8694L23.6929 11.6907C23.8809 10.022 23.5284 8.3769 22.6823 6.94327C21.8362 5.50965 20.5671 4.38155 19.0395 3.72349L12.7409 1.02075C12.7174 1.02075 12.7174 1.02076 12.6939 0.997253L12.6234 0.973751C11.0018 0.480208 9.30961 1.20877 8.65155 2.75991C8.01699 4.24054 8.58105 5.97969 9.92066 6.82576H10.0147L10.2027 6.96678L16.4777 9.66952C16.9713 9.88103 17.3003 10.3746 17.2533 10.9151V10.9621L16.3602 19.1643C16.3132 19.6579 15.9372 20.0809 15.4436 20.1984L11.0723 21.303C10.5317 21.444 10.0382 21.6791 9.63864 22.0081L2.49401 27.6016C0.00278988 29.5523 -0.467251 33.1481 1.43642 35.6393L6.9594 42.9249C7.38244 43.4655 7.99349 43.865 8.72206 44.053L9.68564 44.2881L3.19907 61.28C3.19907 61.3036 3.17557 61.3506 3.15207 61.3741C2.82304 62.3376 2.89355 63.3952 3.34008 64.3353C3.78662 65.2989 4.58569 66.0275 5.57278 66.38C6.04282 66.568 6.51286 66.6385 7.00641 66.6385C8.58104 66.6385 9.99117 65.6984 10.6492 64.2413V64.1003L10.7667 63.9593L18.5224 43.1835L21.7892 63.3952C21.9772 64.4058 22.5648 65.3224 23.4343 65.91C24.1159 66.38 24.915 66.6385 25.7376 66.6385C25.9726 66.6385 26.1841 66.615 26.3721 66.5915C28.5578 66.239 30.0149 64.2883 29.6859 62.1026ZM26.1841 65.1814C26.0431 65.2049 25.9021 65.2049 25.7611 65.2049C24.5154 65.2049 23.4579 64.3353 23.2228 63.1367V63.1132L19.533 40.3162C19.533 40.2927 19.533 40.2692 19.533 40.2692C19.533 40.2457 19.533 40.2222 19.533 40.2222C19.533 40.2222 19.533 40.2222 19.533 40.1987C19.533 40.1752 19.5095 40.1517 19.5095 40.1517L19.486 40.1047C19.486 40.0812 19.486 40.0812 19.4625 40.0577L19.4155 39.9637C19.4155 39.9637 19.4155 39.9637 19.392 39.9402L19.3685 39.9167L19.2745 39.8227C19.2745 39.8227 19.2745 39.8227 19.251 39.7992L19.1805 39.7522C19.1805 39.7522 19.157 39.7522 19.157 39.7287C19.1335 39.7287 19.11 39.7052 19.11 39.7052C19.0865 39.7052 19.0865 39.7052 19.063 39.7052L18.9925 39.6817C18.969 39.6817 18.9455 39.6817 18.922 39.6582C18.8985 39.6582 18.8749 39.6582 18.8514 39.6582H18.7339C18.7104 39.6582 18.7104 39.6582 18.6869 39.6582C18.6634 39.6582 18.6399 39.6582 18.6164 39.6582L18.5694 39.6817C18.5459 39.6817 18.5459 39.7052 18.5224 39.7052L18.4519 39.7287L18.4284 39.7522C18.4049 39.7757 18.3814 39.7992 18.3579 39.8227L18.3344 39.8462L18.3109 39.8697C18.3109 39.8932 18.2874 39.8932 18.2874 39.9167C18.2639 39.9402 18.2639 39.9637 18.2404 39.9872V40.0107L18.2169 40.0812C18.2169 40.1047 18.2169 40.1047 18.1934 40.1282L9.45062 63.5127C8.93358 64.8054 7.49995 65.4399 6.18383 64.9464C4.89122 64.4763 4.20966 63.0192 4.6327 61.7031V61.6796L12.4354 41.2328L12.4589 41.2093C13.4695 39.1411 13.963 36.7674 13.869 34.3937C13.7985 31.926 13.1169 29.5993 11.9418 27.6721L11.8948 27.6486L11.8478 27.5546L11.7303 27.4371C11.7303 27.4371 11.7303 27.4371 11.7068 27.4371C11.6833 27.4371 11.6833 27.4136 11.6598 27.4136C11.6363 27.4136 11.5893 27.3901 11.5423 27.3666L11.4483 27.3431C11.4248 27.3431 11.3778 27.3431 11.3308 27.3431L11.2838 27.3666L11.1428 27.3431C11.1193 27.3666 11.0723 27.3666 11.0488 27.3666C11.0488 27.3666 11.0253 27.3666 11.0018 27.3901C10.9783 27.4136 10.9548 27.4136 10.9313 27.4136C10.9313 27.4136 10.9077 27.4371 10.8842 27.4371L10.7432 27.5781H10.6727L7.10042 30.3513C5.97232 31.2444 5.7843 32.8191 6.65387 33.9942L10.9077 39.5876C11.1428 39.8932 11.1898 40.2927 11.0723 40.6687L11.0488 40.7393L11.0253 40.7863L10.3907 42.4549L9.92066 42.5489C9.2391 42.6899 8.53404 42.4549 8.1345 41.9379L2.61152 34.6757C1.17789 32.7955 1.55393 30.0928 3.41059 28.6357L10.5317 23.0422C10.7902 22.8307 11.1193 22.6897 11.4483 22.5957L15.8432 21.4911C16.9008 21.2325 17.6763 20.316 17.7939 19.2349L18.6869 11.0091C18.8044 9.85753 18.1464 8.70593 17.0418 8.23589L10.7432 5.53315L10.6962 5.50965C9.89716 5.03961 9.56813 4.05252 9.94416 3.20645C10.3672 2.24286 11.3073 2.00784 12.0829 2.21936L12.1534 2.24286L18.4519 4.9456C21.0371 6.0502 22.5648 8.65893 22.2592 11.4322L21.3662 19.6109C21.2957 20.1514 21.3427 20.598 21.4602 21.0445C23.5284 28.3302 24.7975 35.8038 25.2675 43.3245C25.291 43.583 25.3145 43.8415 25.338 44.0295L28.2523 62.1731C28.4638 63.7008 27.5472 64.9699 26.1841 65.1814ZM12.0123 38.7416L7.78197 33.2186C7.38244 32.7015 7.47645 31.973 7.96999 31.5734L11.0958 29.1292L11.5188 30.2338C12.2709 32.1845 12.5529 34.4407 12.2709 36.6264L12.0123 38.7416Z" fill="#6E0147"></path></svg>