<svg xmlns="http://www.w3.org/2000/svg" width="48" height="64" viewBox="0 0 48 64" fill="none"><path d="M32.9272 50.0835V6.37428L33.3823 6.20947C34.5753 5.78561 35.3837 4.64755 35.3837 3.38393C35.3837 1.7279 34.0338 0.385742 32.3776 0.385742H17.6299C15.974 0.385742 14.624 1.7279 14.624 3.38393C14.624 4.64755 15.4325 5.78561 16.6331 6.20947L17.0963 6.37428V50.0835C17.0963 50.4681 17.1198 50.8213 17.167 51.1509C17.2298 51.6297 17.3396 52.1163 17.5044 52.6029C17.6771 53.1209 17.9126 53.6311 18.1952 54.1099C18.7681 55.0752 19.5687 55.9386 20.5027 56.5901C21.0049 56.9354 21.523 57.218 22.0567 57.422C22.3941 57.5633 22.7003 57.6653 23.0063 57.7438C23.4695 57.8694 23.956 57.9479 24.4427 57.9793C24.6311 57.9871 24.8116 57.995 25.0078 57.995C26.5854 57.995 28.1158 57.5319 29.4344 56.645C29.772 56.4174 30.1016 56.1506 30.4469 55.8366C32.0166 54.3453 32.9272 52.2498 32.9272 50.0835ZM31.8282 22.5033H18.1795V6.38212H31.8282V22.5033ZM15.7228 3.38393C15.7228 2.32438 16.5783 1.46101 17.6299 1.46101H32.3776C33.4373 1.46101 34.3007 2.32438 34.3007 3.38393C34.3007 4.43568 33.4373 5.29117 32.3776 5.29117H17.6299C16.5783 5.29117 15.7228 4.43568 15.7228 3.38393ZM28.885 55.7032C27.7391 56.4959 26.4049 56.9119 25.0078 56.9119C24.6232 56.9119 24.2308 56.8726 23.8619 56.8098C22.9121 56.6528 22.0095 56.2918 21.1933 55.7424C21.107 55.6796 21.0206 55.6168 20.9265 55.5541C20.0474 54.8947 19.3411 54.0471 18.8937 53.1053C18.4229 52.187 18.1795 51.1431 18.1795 50.0835V38.3341H22.5511C22.8494 38.3341 23.0849 38.0908 23.0849 37.7925C23.0849 37.4943 22.8416 37.251 22.5511 37.251H18.1795V30.9563H22.5511C22.8416 30.9563 23.0849 30.713 23.0849 30.4148C23.0849 30.1165 22.8494 29.8811 22.5511 29.8811H18.1795V23.5864H31.8282V50.0835C31.8282 51.8573 31.1532 53.537 29.9211 54.8163C29.6306 55.1224 29.2931 55.4128 28.885 55.7032Z" fill="#6E0147"></path><path d="M17.355 54.4464L17.6185 54.522L17.4849 54.2825C17.2687 53.8948 17.0813 53.4732 16.9279 53.0293L16.9075 52.9701L16.8465 52.956C16.1365 52.7916 15.357 52.6626 14.4634 52.5613C13.1559 52.4152 11.943 52.1685 10.8593 51.8283C9.8416 51.4995 8.95909 51.0793 8.23665 50.5796L8.10431 50.487L15.7972 47.9306C15.9897 47.8664 16.1331 47.7504 16.2 47.607C16.2752 47.4568 16.2798 47.2771 16.2136 47.0874C16.1478 46.8996 16.0328 46.7533 15.8982 46.6861C15.7492 46.6116 15.5777 46.6069 15.3726 46.6721L7.07279 49.4309L6.93813 49.2261C6.64916 48.8135 6.41641 48.4636 6.26971 48.0307C5.68369 46.2806 6.25402 44.2079 7.96115 41.8748C8.08123 41.7272 8.13723 41.5663 8.12707 41.3913C8.1084 41.213 8.01671 41.0466 7.85952 40.908C7.58943 40.6832 7.1922 40.7128 6.9114 41.0297C4.93717 43.6963 4.27735 46.2613 5.00333 48.4476C5.99067 51.4177 9.30253 53.346 14.3289 53.8771C15.4192 53.9916 16.4373 54.183 17.355 54.4464Z" fill="#6E0147"></path><path d="M19.9775 57.0302L19.9313 56.9985L13.2363 59.2223C13.0482 59.2881 12.9114 59.3951 12.8247 59.5505C12.7552 59.7091 12.7513 59.887 12.8132 60.0642C12.9142 60.3597 13.1343 60.5243 13.4042 60.5243C13.4838 60.5243 13.5679 60.5099 13.6545 60.4803L21.5395 57.8682L21.2697 57.7499C20.8238 57.5544 20.389 57.3123 19.9775 57.0302Z" fill="#6E0147"></path><path d="M12.8602 55.6214C12.8414 55.4309 12.7462 55.256 12.5966 55.1332C12.3493 54.9063 11.9118 54.9326 11.6363 55.2435C9.66573 57.9053 9.00879 60.4704 9.7362 62.6612L9.97183 63.3758C10.0359 63.5677 10.1498 63.7089 10.3015 63.7842C10.3824 63.8243 10.4717 63.8442 10.5654 63.8442C10.6444 63.8442 10.7269 63.83 10.8101 63.8015C10.9921 63.7469 11.1363 63.6289 11.2151 63.4715C11.2938 63.3236 11.3018 63.1409 11.2383 62.9591L11.0027 62.2445C10.4183 60.4991 10.9913 58.4265 12.7055 56.084L12.7206 56.0578C12.8202 55.9305 12.8695 55.7783 12.8605 55.6257L12.8602 55.6214Z" fill="#6E0147"></path><path d="M15.8246 41.6462L15.9619 41.7377L8.2681 44.2944C8.08086 44.36 7.94068 44.4758 7.87484 44.6174C7.79663 44.7737 7.78923 44.9534 7.85319 45.1362C7.95493 45.4343 8.17564 45.5988 8.45633 45.5988C8.5341 45.5988 8.61662 45.5861 8.70234 45.5601L16.495 42.96V40.5191L16.4456 40.4854C14.8102 39.3689 12.5535 38.6495 9.7385 38.3473C8.21585 38.1807 6.86232 37.8792 5.71536 37.451C4.53835 37.0165 3.57388 36.4591 2.84956 35.795L2.74153 35.6938L10.8293 33.0023C11.019 32.939 11.1605 32.8281 11.2401 32.6788C11.3152 32.5285 11.3199 32.3489 11.2547 32.1622C11.1958 31.9765 11.0864 31.8386 10.9384 31.7632C10.7871 31.6862 10.6054 31.6798 10.4126 31.7438L1.90155 34.5757L1.86697 34.5319C1.72215 34.3318 1.62693 34.0705 1.54508 33.8161L1.30261 33.1046C1.21037 32.8092 0.988111 32.6328 0.708082 32.6328C0.632414 32.6328 0.551443 32.6475 0.458873 32.6783C0.0807496 32.8108 -0.0860527 33.1493 0.0433027 33.5192L0.278814 34.2336C1.26726 37.2067 4.57911 39.1322 9.60296 39.6552C12.3243 39.9766 14.4166 40.6459 15.8246 41.6462Z" fill="#6E0147"></path><path d="M11.1681 36.7056C11.1871 36.8869 11.2814 37.0606 11.443 37.2022C11.5464 37.2752 11.6587 37.3116 11.778 37.3116C11.8568 37.3116 11.9385 37.2958 12.0226 37.2643C12.1203 37.2317 12.2309 37.1472 12.3606 37.0058L12.3669 36.9984C14.3977 34.3649 15.0823 31.7938 14.3465 29.5622L14.1045 28.8518C14.0507 28.673 13.9421 28.5358 13.7831 28.4515C13.7113 28.4194 13.6226 28.3867 13.5094 28.3867C13.4381 28.3867 13.3478 28.4031 13.2651 28.4307C13.0802 28.4861 12.9359 28.6015 12.8589 28.7555C12.7841 28.9055 12.7796 29.0877 12.8449 29.2653L13.0804 29.9794C13.8711 32.3746 12.324 34.9306 11.3363 36.2353C11.2162 36.3739 11.158 36.5347 11.1681 36.7056Z" fill="#6E0147"></path><path d="M47.6591 49.3586L43.9007 33.9325C43.8539 33.6993 43.6823 33.5128 43.4581 33.4477C43.2407 33.3718 42.9838 33.4268 42.8023 33.5894L33.5283 42.2173V44.0412L42.8775 35.3387L46.364 49.671C46.7147 51.1044 46.8347 52.3033 46.3502 53.8486C45.219 57.4442 41.9221 59.86 38.1465 59.86C37.2998 59.86 36.4317 59.7243 35.5671 59.4571C34.469 59.1092 33.4815 58.5646 32.6302 57.8374C32.0593 57.3654 31.5461 56.8026 31.105 56.1649L31.0322 56.0595L30.9367 56.1448C30.6414 56.4083 30.3625 56.6315 30.0838 56.8274L29.9912 56.8925L30.0563 56.985C31.321 58.7828 33.0891 60.076 35.1694 60.7246C36.157 61.0352 37.1574 61.183 38.142 61.183C42.3611 61.183 46.2847 58.4695 47.6179 54.2381C48.1907 52.4082 48.0486 50.964 47.6591 49.3586Z" fill="#6E0147"></path></svg>