<svg xmlns="http://www.w3.org/2000/svg" width="68" height="67" viewBox="0 0 68 67" fill="none"><path d="M63.5713 59.1392L63.6891 58.9743C65.8569 55.8875 67.0115 52.2352 67.0115 48.4651C67.0115 43.6819 65.1736 39.1577 61.8276 35.694C58.5052 32.2538 54.0282 30.2745 49.2685 30.1095H49.08L48.9858 29.921L34.683 1.33906C34.5416 1.03274 34.2353 0.844238 33.8818 0.844238C33.552 0.844238 33.2456 1.03274 33.0807 1.33906L7.25561 53.1542V53.1778C7.23204 53.2249 7.20848 53.272 7.18492 53.3427L7.16135 53.3663L1.08209 65.5484C0.940711 65.8311 0.964274 66.1374 1.12922 66.3966C1.29416 66.6558 1.57691 66.8208 1.88323 66.8208H65.9983C66.3046 66.8208 66.5873 66.6558 66.7523 66.3966C66.9172 66.1374 66.9408 65.8075 66.7994 65.5484L63.5713 59.1392ZM33.9054 3.69537L41.2335 18.3751H26.5773L33.9054 3.69537ZM25.7055 20.1424H42.1289L46.9358 29.8268H20.8515L25.7055 20.1424ZM19.9796 31.594H41.3042L40.126 32.2066C36.4502 34.1388 33.5284 37.2963 31.8554 41.0664L31.7612 41.2549H15.1492L19.9796 31.594ZM14.2538 43.0692H31.1014L30.9836 43.4933C30.5123 45.1192 30.3003 46.7922 30.3003 48.4887C30.3003 49.7847 30.4416 51.0806 30.7244 52.3766L30.8186 52.7772H9.44697L14.2538 43.0692ZM3.27345 65.0535L8.52801 54.5208H31.3135L31.3842 54.7329C32.8686 58.8329 35.7904 62.2731 39.6077 64.4409L40.6916 65.0535H3.27345ZM32.8451 53.5076V53.4605C32.8451 53.3898 32.8215 53.3191 32.7744 53.272L32.7508 53.2249C32.2796 51.6697 32.0439 50.0674 32.0439 48.4651C32.0439 39.4169 39.3956 31.9946 48.4438 31.9003C48.5145 31.9003 48.5616 31.9003 48.5852 31.9003H48.6087C57.7512 31.9003 65.1971 39.3463 65.1971 48.4887C65.1971 57.6312 57.7512 65.0771 48.6087 65.0771C41.3985 65.0535 35.06 60.4116 32.8451 53.5076ZM56.573 65.0535L57.6569 64.4409C59.2828 63.5219 60.7437 62.3673 62.0161 61.0242L62.346 60.6708L64.5374 65.0771H56.573V65.0535Z" fill="#6E0147"></path><path d="M51.2005 41.6556C50.7764 41.6556 50.3523 41.7028 49.9517 41.8206L49.5276 41.9148V41.2079C49.5276 40.1947 50.2109 39.2758 51.177 38.993C51.6482 38.8516 51.9074 38.3568 51.7896 37.8855C51.6482 37.4143 51.1534 37.1551 50.6821 37.2729C48.962 37.7677 47.7603 39.3936 47.7603 41.1844V41.8913L47.3362 41.797C46.9121 41.6792 46.5115 41.6321 46.0874 41.6321C42.6 41.6321 39.7725 45.1665 39.7725 49.5257C39.7725 53.8848 42.6 57.4193 46.0874 57.4193C46.9121 57.4193 47.7132 57.2308 48.4908 56.8302L48.6322 56.7595L48.7735 56.8302C49.5276 57.2308 50.3523 57.4193 51.177 57.4193C54.6643 57.4193 57.4919 53.8848 57.4919 49.5257C57.4919 45.1665 54.6643 41.6556 51.2005 41.6556ZM51.2005 55.6756C50.4936 55.6756 49.7867 55.44 49.1505 55.0159C48.8442 54.8038 48.4437 54.8038 48.1373 55.0159C47.5011 55.4636 46.8178 55.6756 46.0874 55.6756C43.5897 55.6756 41.5397 52.9188 41.5397 49.5492C41.5397 46.1797 43.5661 43.4229 46.0874 43.4229C46.7942 43.4229 47.4776 43.6349 48.1138 44.0826L48.1373 44.1062C48.1609 44.1298 48.208 44.1533 48.2552 44.1769C48.3494 44.224 48.4201 44.2476 48.5143 44.2476H48.5379C48.6086 44.2476 48.7028 44.2476 48.7735 44.2476H48.7971C48.8678 44.224 48.962 44.2004 49.0327 44.1769C49.0799 44.1533 49.127 44.1298 49.1505 44.1062L49.1741 44.0826C49.8103 43.6585 50.4936 43.4229 51.2005 43.4229C53.6982 43.4229 55.7482 46.1797 55.7482 49.5492C55.7246 52.9188 53.6982 55.6756 51.2005 55.6756Z" fill="#6E0147"></path></svg>