<svg xmlns="http://www.w3.org/2000/svg" width="60" height="66" viewBox="0 0 60 66" fill="none"><path d="M20.1106 27.0247H30.0001C30.37 27.0247 30.6711 26.7206 30.6711 26.3466C30.6711 25.9768 30.37 25.6758 30.0001 25.6758H20.1106C19.7366 25.6758 19.4324 25.9768 19.4324 26.3466C19.4324 26.7206 19.7366 27.0247 20.1106 27.0247Z" fill="#6E0147"></path><path d="M36.5955 19.0781H20.1106C19.7366 19.0781 19.4324 19.3791 19.4324 19.749C19.4324 20.1228 19.7366 20.427 20.1106 20.427H36.5955C36.9654 20.427 37.2665 20.1228 37.2665 19.749C37.2665 19.3791 36.9654 19.0781 36.5955 19.0781Z" fill="#6E0147"></path><path d="M23.8819 45.6515C23.7513 45.5217 23.5864 45.4531 23.4048 45.4531H20.1106C19.7366 45.4531 19.4324 45.7574 19.4324 46.1313C19.4324 46.5012 19.7366 46.8021 20.1106 46.8021H23.4048C23.7785 46.8021 24.0825 46.5012 24.0825 46.1313C24.0825 45.9465 24.0094 45.7719 23.8819 45.6515Z" fill="#6E0147"></path><path d="M25.6029 58.6455H5.82359C3.77587 58.6455 2.10435 56.9769 2.09733 54.9265V12.0595C2.10434 10.0086 3.77587 8.34011 5.82359 8.34011H10.6454V10.9634C10.6454 12.5456 11.9326 13.8328 13.5145 13.8328H31.0955C32.6818 13.8328 33.9723 12.5456 33.9723 10.9634V8.34011H38.7942C40.8448 8.34011 42.5129 10.0084 42.5129 12.059V28.5443C42.5129 28.9182 42.817 29.2224 43.1909 29.2224C43.5608 29.2224 43.8617 28.9182 43.8617 28.5443V12.059C43.8617 9.26455 41.5884 6.99118 38.7942 6.99118H33.8945L33.7925 6.70852C33.3932 5.56261 32.3094 4.79268 31.0955 4.79268H27.3414L27.2736 4.45324C27.0084 3.12738 26.2382 1.98498 25.1044 1.23642C23.9654 0.489452 22.6114 0.227492 21.291 0.498955C19.2955 0.905354 17.7435 2.45732 17.3367 4.45324L17.2686 4.79268H13.5145C12.3083 4.79268 11.2248 5.56239 10.8174 6.70931L10.7214 6.99118H5.82359C3.03229 6.99118 0.755637 9.26444 0.748398 12.059V54.9195C0.755637 57.7106 3.03207 59.987 5.82359 59.9945H25.6029C25.9769 59.9945 26.2811 59.6902 26.2811 59.3163C26.2811 58.9464 25.9769 58.6455 25.6029 58.6455ZM11.9941 7.66202C11.9941 6.82366 12.6762 6.14161 13.5145 6.14161H17.9118C18.0939 6.14161 18.2592 6.07262 18.3902 5.94175C18.5124 5.81937 18.5825 5.64507 18.5825 5.46353C18.5825 3.41286 20.254 1.74462 22.3088 1.74462C24.3592 1.74462 26.0276 3.41286 26.0276 5.46353C26.0276 5.83747 26.3286 6.14161 26.6985 6.14161H31.0955C31.938 6.14161 32.6232 6.82367 32.6232 7.66203V10.9634C32.6232 11.8018 31.9411 12.4839 31.103 12.4839H13.5145C12.6762 12.4839 11.9941 11.8018 11.9941 10.9634L11.9941 7.66202Z" fill="#6E0147"></path><path d="M20.1106 33.6186H36.5955C36.9654 33.6186 37.2665 33.3143 37.2665 32.9404C37.2665 32.5642 36.9717 32.2695 36.5955 32.2695H20.1106C19.7366 32.2695 19.4324 32.5705 19.4324 32.9404C19.4324 33.3143 19.7366 33.6186 20.1106 33.6186Z" fill="#6E0147"></path><path d="M25.6031 38.8594H20.1106C19.7366 38.8594 19.4324 39.1636 19.4324 39.5376C19.4324 39.9074 19.7366 40.2083 20.1106 40.2083H25.6031C25.9771 40.2083 26.2813 39.9074 26.2813 39.5376C26.2813 39.1636 25.9771 38.8594 25.6031 38.8594Z" fill="#6E0147"></path><path d="M15.2884 19.749C15.2884 19.5692 15.2156 19.3978 15.0887 19.2778C14.9688 19.1509 14.7973 19.0781 14.6174 19.0781H8.02162C7.64791 19.0781 7.34387 19.3791 7.34387 19.749V26.3445C7.34387 26.7184 7.64791 27.0226 8.02162 27.0226H14.6102C14.9841 27.0226 15.2884 26.7184 15.2884 26.3445V19.749ZM13.9392 20.427V25.6736H8.69303V20.427H13.9392Z" fill="#6E0147"></path><path d="M49.2318 37.7635H49.2313C47.5582 37.7707 45.929 38.2532 44.5195 39.1588L43.8618 39.5838V37.3386C43.8618 34.6799 46.0249 32.5169 48.6839 32.5169C49.0538 32.5169 49.3546 32.2159 49.3546 31.8461C49.3546 31.4721 49.0538 31.168 48.6837 31.168C45.2888 31.1752 42.5208 33.9433 42.5131 37.3386V39.5838L41.8555 39.1588C40.4536 38.2532 38.8244 37.7709 37.1436 37.7635C31.0611 37.7635 27.1308 42.3417 27.1308 49.427C27.1308 57.082 33.235 65.4874 38.7948 65.4874C40.3206 65.4799 41.777 64.9006 42.8959 63.8556L43.1904 63.5781L43.4798 63.8559C44.598 64.9006 46.0568 65.4799 47.5881 65.4874C53.1474 65.4874 59.2517 57.082 59.2517 49.427C59.2517 42.3417 55.3186 37.7635 49.2318 37.7635ZM57.9027 49.427C57.9027 56.3016 52.4043 64.1384 47.5811 64.1384V64.2542L47.5763 64.1384C46.0261 64.1034 44.6115 63.3715 43.691 62.1258C43.5684 61.9785 43.3838 61.9032 43.1961 61.9032C43.0427 61.9032 42.8871 61.9536 42.7617 62.0565C42.7242 62.0844 42.6946 62.1138 42.6656 62.1525C41.758 63.3795 40.3485 64.1034 38.8014 64.1384C33.9782 64.1384 28.4797 56.3016 28.4797 49.427C28.4797 43.0646 31.7995 39.1124 37.1432 39.1124C39.2617 39.1196 41.2904 40.0227 42.7142 41.5956C42.973 41.8453 43.4101 41.8365 43.6951 41.5682C45.0992 40.0146 47.1176 39.1196 49.2318 39.1124C54.5803 39.1124 57.9027 43.0646 57.9027 49.427Z" fill="#6E0147"></path><path d="M15.2884 32.9404C15.2884 32.7582 15.2194 32.5927 15.0887 32.462C14.9663 32.3397 14.7946 32.2695 14.6174 32.2695H8.02162C7.64791 32.2695 7.34387 32.5705 7.34387 32.9404V39.536C7.34387 39.9059 7.64791 40.2067 8.02162 40.2067H14.6102C14.9841 40.2067 15.2884 39.9059 15.2884 39.536V32.9404ZM13.9392 33.6186V38.8578H8.69303V33.6186H13.9392Z" fill="#6E0147"></path><path d="M8.02162 45.4531C7.64791 45.4531 7.34387 45.7574 7.34387 46.1313V52.7267C7.34387 53.0966 7.64791 53.3977 8.02162 53.3977H14.6102C14.9842 53.3977 15.2884 53.0966 15.2884 52.7267V46.1313C15.2884 45.9497 15.2199 45.7845 15.09 45.654C14.9699 45.5264 14.7977 45.4531 14.6174 45.4531H8.02162ZM13.9393 46.8021V52.0487H8.69304V46.8021H13.9393Z" fill="#6E0147"></path><path d="M23.4048 52.0508H20.1106C19.7366 52.0508 19.4324 52.3548 19.4324 52.7288C19.4324 53.0986 19.7366 53.3997 20.1106 53.3997H23.4048C23.7785 53.3997 24.0825 53.0986 24.0825 52.7288C24.0825 52.3548 23.7785 52.0508 23.4048 52.0508Z" fill="#6E0147"></path></svg>