<svg xmlns="http://www.w3.org/2000/svg" width="72" height="67" viewBox="0 0 72 67" fill="none"><path d="M61.6149 37.3434C61.6149 37.3177 61.5892 37.3177 61.5892 37.292C60.8701 34.056 59.586 31.0254 57.9679 27.8151V27.7894C57.9679 27.7637 57.9423 27.7637 57.9423 27.738C57.3259 26.5052 56.6324 25.2468 55.9133 23.9626C52.1379 17.1053 51.4188 10.3507 53.6275 2.10649C53.7303 1.69557 53.6532 1.25896 53.3964 0.925084C53.1396 0.591207 52.7543 0.385742 52.3177 0.385742H29.2545H19.6748C19.2381 0.385742 18.8529 0.591207 18.5961 0.925084C18.3392 1.25896 18.2622 1.69557 18.3649 2.10649C18.6988 3.36496 18.9556 4.59774 19.1611 5.80483H4.95846C2.23607 5.80483 0.0273438 8.01356 0.0273438 10.7359V19.314C0.0273438 22.0364 2.23607 24.2451 4.95846 24.2451H15.9251C15.2316 25.4779 14.5895 26.685 13.9988 27.8921C13.9988 27.8921 13.9988 27.8921 13.9988 27.9178C13.9988 27.9178 13.9988 27.9178 13.9988 27.9435C12.4065 31.1025 11.148 34.1074 10.4289 37.3691C10.4289 37.3948 10.4032 37.3948 10.4032 37.3948C10.4032 37.4205 10.4032 37.4205 10.4032 37.4461C8.88794 44.4062 9.91525 52.4706 15.6939 65.1323C16.0278 65.8771 16.7726 66.3394 17.5688 66.3394H54.4237C55.2456 66.3394 55.9647 65.8514 56.2986 65.1323C57.557 62.3842 58.61 59.7646 59.4575 57.3504L60.9472 52.4963C62.4881 46.5379 62.5395 41.8122 61.5892 37.4718C61.6149 37.3948 61.6149 37.3691 61.6149 37.3434ZM36.0091 52.8816C35.0331 52.8816 34.0058 52.2909 32.773 51.0067C29.4342 47.5138 20.8305 39.2953 11.7901 37.0095C12.4579 34.2872 13.5365 31.6932 14.8977 28.9965C22.0633 32.4123 28.7922 34.1331 35.6238 34.1331C42.5068 34.1331 49.4926 32.3866 57.0947 28.8937C58.4816 31.6675 59.5603 34.2872 60.228 37.0095C51.1877 39.2953 42.5839 47.5138 39.2451 51.0067C38.0123 52.2909 36.985 52.8816 36.0091 52.8816ZM4.98414 7.08898H19.3922C19.7261 9.63158 19.7261 12.0458 19.3922 14.3572H4.98414C2.98087 14.3572 1.33717 12.7135 1.33717 10.7103C1.33717 8.707 2.98087 7.08898 4.98414 7.08898ZM1.33717 19.2883V14.049C2.23607 15.025 3.5459 15.6671 4.98414 15.6671H19.9573H42.1216C42.5582 15.6671 42.8921 16.0266 42.8921 16.4375V22.1648C42.8921 22.6014 42.5325 22.9353 42.1216 22.9353H37.2418V19.9047C37.2418 19.5452 36.9593 19.2627 36.5998 19.2627C36.2402 19.2627 35.9577 19.5452 35.9577 19.9047V22.9353H30.2304V19.9047C30.2304 19.5452 29.9479 19.2627 29.5883 19.2627C29.2288 19.2627 28.9463 19.5452 28.9463 19.9047V22.9353H23.219V19.9047C23.219 19.5452 22.9365 19.2627 22.5769 19.2627C22.2174 19.2627 21.9348 19.5452 21.9348 19.9047V22.9353H16.2076V19.9047C16.2076 19.5452 15.925 19.2627 15.5655 19.2627C15.2059 19.2627 14.9234 19.5452 14.9234 19.9047V22.9353H9.19614V19.9047C9.19614 19.5452 8.91362 19.2627 8.55406 19.2627C8.1945 19.2627 7.91199 19.5452 7.91199 19.9047V22.9353H5.0355C2.98087 22.9353 1.33717 21.2916 1.33717 19.2883ZM42.1216 24.2195C43.2516 24.2195 44.1762 23.2949 44.1762 22.1648V16.4375C44.1762 15.3075 43.2516 14.3829 42.1216 14.3829H20.6764C21.0103 11.866 20.9846 9.24634 20.5737 6.47259C20.5737 6.47259 20.5737 6.47259 20.5737 6.44691C20.5737 6.39554 20.548 6.36985 20.548 6.34417C20.3425 4.88025 20.0343 3.36496 19.5977 1.7983L19.6491 1.72125H28.6381H52.2663L52.3177 1.7983C50.0062 10.4021 50.751 17.4392 54.7062 24.6304C55.2969 25.7091 55.8619 26.7621 56.4013 27.7894C41.7107 34.5183 29.3572 34.544 15.3857 27.8921C15.925 26.8391 16.5158 25.7604 17.1321 24.6304C17.2092 24.502 17.2606 24.3736 17.3376 24.2708H42.1216V24.2195ZM16.8753 64.5416C11.3792 52.4963 10.2234 44.8942 11.5333 38.2937C20.2398 40.5024 28.6124 48.5155 31.8741 51.9313C33.1069 53.2411 34.237 53.9346 35.3927 54.14V65.0296H17.5944C17.2606 64.9782 17.0037 64.8241 16.8753 64.5416ZM58.2761 56.8624C57.4543 59.2252 56.4013 61.8192 55.1685 64.5416C55.0401 64.8241 54.7576 65.0039 54.4494 65.0039H36.6511V54.1143C37.7812 53.9089 38.9112 53.2154 40.1697 51.9056C43.4057 48.5155 51.7784 40.5024 60.4849 38.2937C61.2553 42.3002 61.1269 46.6406 59.7144 52.1368L58.2761 56.8624Z" fill="#6E0147"></path><path d="M71.7334 36.8554C71.4509 36.6242 71.04 36.6756 70.8345 36.9324L68.9597 39.1925C68.1378 32.2067 65.3384 26.6079 61.9996 20.5981C59.6625 16.3604 58.9176 12.4052 59.534 7.78232C59.5854 7.42276 59.3286 7.11457 58.9947 7.0632C58.6351 7.01184 58.3269 7.26867 58.2756 7.60254C57.6078 12.5337 58.404 16.7456 60.8952 21.2402C64.157 27.1472 66.9307 32.6434 67.7012 39.4493L65.2356 37.6258C64.9531 37.4204 64.5422 37.4717 64.3367 37.7543C64.1313 38.0368 64.1826 38.4477 64.4651 38.6532L68.0864 41.3242C68.1121 41.3499 68.1378 41.3498 68.1635 41.3755C68.1892 41.4012 68.2149 41.4012 68.2405 41.4012C68.3176 41.4269 68.3946 41.4526 68.446 41.4526C68.4717 41.4526 68.4717 41.4526 68.4974 41.4526C68.5487 41.4526 68.6001 41.4269 68.6515 41.4012C68.6771 41.4012 68.7028 41.4012 68.7542 41.3755C68.8312 41.3242 68.9083 41.2728 68.9597 41.2214L71.8361 37.7543C72.0416 37.4974 72.0159 37.0865 71.7334 36.8554Z" fill="#6E0147"></path></svg>