<svg xmlns="http://www.w3.org/2000/svg" width="66" height="53" viewBox="0 0 66 53" fill="none"><path d="M58.9286 6.9057H54.7329V1.69641C54.7329 1.48427 54.6622 1.27213 54.4972 1.10713C54.3321 0.942126 54.1436 0.871412 53.9314 0.871412C53.9079 0.871412 53.8843 0.871412 53.8607 0.871412L51.2443 1.08355C44.9036 1.60212 38.7279 3.1107 32.8821 5.56213L29.8886 6.81141L26.895 5.56213C21.0257 3.1107 14.85 1.60212 8.53284 1.08355L5.89284 0.871412C5.44499 0.824269 5.04427 1.17784 5.0207 1.6257C5.0207 1.64927 5.0207 1.67284 5.0207 1.69641V6.9057H0.824985C0.377128 6.9057 -1.52588e-05 7.25927 -1.52588e-05 7.7307V49.8293C-1.52588e-05 50.2771 0.377128 50.6543 0.824985 50.6543H52.6821C51.2914 50.3714 50.0186 49.8057 48.9107 49.0279H33.9429L35.0507 48.6036C35.1214 48.58 35.2157 48.5329 35.2864 48.5093C35.5929 48.3914 35.8993 48.2736 36.2057 48.1793C36.6064 48.0378 36.9836 47.8964 37.3843 47.755L38.3036 47.4486C38.7043 47.3307 39.105 47.1893 39.5057 47.0714C39.8121 46.9771 40.1421 46.8829 40.4486 46.8121C40.8257 46.6943 41.2264 46.6 41.6743 46.4821C41.9807 46.4114 42.2871 46.3171 42.6171 46.2464C43.0414 46.1521 43.4657 46.0578 43.89 45.9636L44.055 45.9164C44.1964 45.8929 44.3143 45.8693 44.4557 45.8221C44.5029 45.8221 44.5264 45.7986 44.5736 45.7986C44.6443 45.775 44.715 45.775 44.8093 45.7514C45.1629 45.6807 45.54 45.61 45.8936 45.5393C45.6343 45.0443 45.3986 44.5257 45.2336 43.9836C44.8093 44.0543 44.4086 44.1486 43.9843 44.2193C43.9371 44.2193 43.89 44.2429 43.8429 44.2429C40.095 45.0207 36.4414 46.1521 32.9057 47.6371L30.69 48.5564V8.24927L33.495 7.09427C39.1993 4.71355 45.2336 3.25213 51.3621 2.73355L53.0829 2.59212V31.1371C53.5779 31.0664 54.0964 31.0193 54.615 31.0193C54.6386 31.0193 54.6857 31.0193 54.7093 31.0193V8.53213H58.08V31.6321C58.6457 31.8443 59.1879 32.1036 59.7064 32.4336V7.70713C59.7536 7.25927 59.3764 6.9057 58.9286 6.9057ZM1.62641 49.0043V8.53213H4.99713V43.795C4.99713 44.2193 5.32713 44.5729 5.75141 44.62L8.46213 44.8557C9.19284 44.9264 9.94713 44.9971 10.6778 45.0914C10.8193 45.115 10.9607 45.1386 11.1021 45.1386C11.1964 45.1621 11.3143 45.1621 11.4086 45.1857C11.88 45.2564 12.375 45.3271 12.87 45.3979C13.0821 45.4214 13.2943 45.4686 13.5064 45.5157L13.7421 45.5629C14.1664 45.6336 14.6143 45.7279 15.0621 45.7986C15.3214 45.8457 15.5807 45.9164 15.84 45.9636L15.9814 45.9871C16.3586 46.0578 16.8064 46.1757 17.2543 46.27C17.5607 46.3407 17.8671 46.4114 18.1736 46.5057C18.5979 46.6236 18.9986 46.7179 19.4228 46.8357C19.7293 46.93 20.0357 47.0007 20.3186 47.095C20.7193 47.2129 21.1436 47.3543 21.5443 47.4721C21.8507 47.5664 22.1336 47.6607 22.44 47.755C22.7936 47.8729 23.1707 48.0143 23.6657 48.1793C23.9486 48.2736 24.255 48.3914 24.5379 48.5093C24.6086 48.5329 24.6557 48.5564 24.7264 48.58C24.7971 48.6036 24.8443 48.6271 24.915 48.6507L25.8814 49.0043H1.62641ZM29.0636 48.58L26.9657 47.7078C21.0964 45.2564 14.9207 43.7479 8.60356 43.2057L6.64713 43.0407V2.59212L8.36785 2.73355C14.5436 3.25213 20.5543 4.71355 26.235 7.09427L29.04 8.24927L29.0636 48.58Z" fill="#6E0147"></path><path d="M59.7536 49.4062V49.807C59.7536 50.2548 59.3765 50.632 58.9286 50.632H56.595C57.7265 50.3963 58.7872 49.972 59.7536 49.4062Z" fill="#6E0147"></path><path d="M9.40487 8.69681C9.14558 8.67324 8.93344 8.93252 8.93344 9.16824C8.93344 9.45109 9.14558 9.61609 9.40487 9.63967C14.1663 10.1582 18.8806 11.1482 23.4534 12.5861C24.7263 12.9868 25.9992 13.4347 27.272 13.9061C27.5077 14.0004 27.7906 13.8118 27.8377 13.5761C27.9085 13.3168 27.7435 13.0811 27.5077 13.0104C22.982 11.3132 18.2913 10.064 13.5299 9.28609C12.1627 9.05038 10.7956 8.86181 9.40487 8.69681Z" fill="#6E0147"></path><path d="M33.1181 13.6946C36.8424 11.5968 40.826 9.97035 44.9981 8.95678C46.1295 8.67392 47.2846 8.43821 48.4396 8.24963C48.6988 8.20249 48.8167 7.89606 48.7696 7.68392C48.6988 7.42463 48.4396 7.30678 48.2038 7.35392C43.9846 8.03749 39.8831 9.35749 36.0174 11.1725C34.886 11.7146 33.7781 12.2804 32.6703 12.8932C32.1281 13.1761 32.5995 14.0011 33.1181 13.6946Z" fill="#6E0147"></path><path d="M8.67422 29.5342C13.4828 30.0528 18.2207 31.0428 22.8407 32.4806C24.1607 32.8813 25.4571 33.3292 26.7299 33.8242C26.9657 33.9185 27.2485 33.7299 27.2957 33.4942C27.3664 33.2349 27.2014 32.9992 26.9657 32.9285C22.3928 31.2078 17.6314 29.9585 12.7992 29.1571C11.4321 28.9213 10.0414 28.7563 8.65065 28.5913C8.39137 28.5678 8.17922 28.8271 8.17922 29.0628C8.20279 29.3692 8.41494 29.5106 8.67422 29.5342Z" fill="#6E0147"></path><path d="M9.02788 23.4755C13.7422 23.994 18.4093 24.984 22.9115 26.4455C24.1843 26.8462 25.4572 27.294 26.73 27.789C26.9657 27.8833 27.2486 27.6948 27.2957 27.459C27.3665 27.1998 27.2015 26.9876 26.9657 26.8933C22.4872 25.1726 17.82 23.9233 13.0822 23.1219C11.7386 22.8862 10.395 22.7212 9.02788 22.5562C8.76859 22.5326 8.55645 22.7919 8.55645 23.0276C8.58002 23.2633 8.79216 23.4283 9.02788 23.4755Z" fill="#6E0147"></path><path d="M10.2302 20.0589C10.2302 20.3417 10.4424 20.4831 10.7017 20.5303C14.9681 21.0253 19.211 21.9917 23.2888 23.3589C24.4438 23.7596 25.5988 24.1839 26.7302 24.6317C26.966 24.726 27.2488 24.5374 27.296 24.3017C27.3667 24.0424 27.2017 23.8303 26.966 23.736C22.9117 22.1096 18.6688 20.8839 14.3552 20.1296C13.1295 19.9174 11.9038 19.7289 10.6781 19.5874C10.4424 19.5639 10.2302 19.8231 10.2302 20.0589Z" fill="#6E0147"></path><path d="M23.76 16.7584C24.7029 17.0884 25.6222 17.4184 26.5414 17.7955C26.7772 17.8898 27.06 17.7013 27.1072 17.4655C27.1779 17.2063 27.0129 16.9941 26.7772 16.8998C23.5243 15.5563 20.1064 14.5662 16.6414 13.9298C15.6514 13.7412 14.6379 13.5998 13.6243 13.482C13.365 13.4584 13.1529 13.7177 13.1529 13.9534C13.1529 14.2363 13.365 14.3777 13.6243 14.4248C17.0657 14.8491 20.46 15.627 23.76 16.7584Z" fill="#6E0147"></path><path d="M26.8953 39.3386C22.3224 37.6179 17.561 36.3686 12.7288 35.5672C11.3617 35.3315 9.97097 35.1665 8.58025 35.0015C8.32097 34.9779 8.10883 35.2372 8.10883 35.4729C8.10883 35.7558 8.32097 35.9208 8.58025 35.9444C13.3888 36.4629 18.1267 37.4529 22.7467 38.8908C24.0667 39.2915 25.3631 39.7394 26.636 40.2344C26.8717 40.3286 27.1545 40.1401 27.2017 39.9044C27.296 39.6451 27.131 39.4329 26.8953 39.3386Z" fill="#6E0147"></path><path d="M27.0835 36.0144C22.5107 34.2937 17.7492 33.0444 12.9171 32.243C11.5499 32.0073 10.1592 31.8423 8.76852 31.6773C8.50923 31.6537 8.29709 31.913 8.29709 32.1487C8.29709 32.4316 8.50923 32.5966 8.76852 32.6201C13.5771 33.1387 18.3149 34.1287 22.935 35.5666C24.255 35.9673 25.5514 36.4151 26.8242 36.9101C27.06 37.0044 27.3428 36.8159 27.3899 36.5801C27.4842 36.3444 27.3192 36.1087 27.0835 36.0144Z" fill="#6E0147"></path><path d="M33.4717 33.7766C37.5967 31.4901 42.0046 29.7459 46.5774 28.638C47.8503 28.3316 49.1467 28.0723 50.4432 27.8601C50.7024 27.813 50.8203 27.5066 50.7732 27.2944C50.7024 27.0351 50.4432 26.9409 50.2074 26.9644C45.5167 27.7187 40.9674 29.1566 36.6774 31.1366C35.4282 31.7023 34.226 32.3387 33.0239 32.9987C32.4817 33.258 32.9532 34.0594 33.4717 33.7766Z" fill="#6E0147"></path><path d="M33.3066 21.6372C37.1252 19.5393 41.203 17.9129 45.4459 16.8993C46.6009 16.6165 47.7794 16.3807 48.9816 16.1922C49.2409 16.145 49.3587 15.8386 49.3116 15.6265C49.2409 15.3672 48.9816 15.2729 48.7459 15.2965C44.4323 15.98 40.2366 17.3 36.2766 19.115C35.1216 19.6572 33.9666 20.2229 32.8587 20.8357C32.293 21.1186 32.7644 21.92 33.3066 21.6372Z" fill="#6E0147"></path><path d="M33.3066 17.559C37.1723 15.4612 41.2973 13.8348 45.5873 12.8212C46.7659 12.5383 47.968 12.3026 49.1702 12.114C49.4294 12.0669 49.5473 11.7605 49.5002 11.5483C49.4294 11.289 49.1702 11.1948 48.9344 11.2183C44.5737 11.9019 40.3309 13.2219 36.3002 15.0369C35.1216 15.5555 33.9902 16.1448 32.8587 16.7576C32.293 17.0405 32.7644 17.8655 33.3066 17.559Z" fill="#6E0147"></path><path d="M45.7759 24.2055C42.3109 24.8183 38.9401 26.0205 35.8051 27.6233C34.8623 28.0948 33.9666 28.6133 33.0708 29.1791C32.5523 29.4855 33.0237 30.2869 33.5423 29.9805C36.5358 28.1419 39.7887 26.6805 43.183 25.7376C44.1259 25.4783 45.0687 25.2662 46.0351 25.1012C46.2944 25.0541 46.4123 24.7476 46.3651 24.5355C46.2709 24.2762 46.0116 24.1583 45.7759 24.2055Z" fill="#6E0147"></path><path d="M59.7536 31.4449C59.235 31.162 58.6929 30.9263 58.1272 30.7377C57.0664 30.3842 55.935 30.172 54.7564 30.1484C54.6857 30.1484 54.6386 30.1484 54.5679 30.1484C54.0729 30.1484 53.6014 30.172 53.13 30.2427C47.7322 30.9499 43.56 35.5699 43.56 41.1563C43.56 42.2406 43.725 43.2777 44.0079 44.2677C44.1729 44.8099 44.3614 45.3284 44.5972 45.8234C45.1629 47.0256 45.9172 48.1099 46.86 49.0292C47.4964 49.6656 48.2036 50.2077 48.9814 50.6556C50.6079 51.622 52.5172 52.1877 54.5679 52.1877C60.6493 52.1877 65.5757 47.2613 65.5757 41.1799C65.5522 36.937 63.195 33.307 59.7536 31.4449ZM59.7536 49.4063C58.7872 49.9956 57.7264 50.3963 56.6186 50.632C55.9822 50.7499 55.3222 50.8206 54.6622 50.8206C53.9786 50.8206 53.3422 50.7499 52.7057 50.632C51.315 50.3492 50.0422 49.7834 48.9343 49.0056C47.685 48.1099 46.6479 46.9313 45.9172 45.5642C45.6579 45.0692 45.4222 44.5506 45.2572 44.0084C44.9272 43.042 44.7622 42.0049 44.7622 40.9206C44.7622 35.9706 48.3922 31.8692 53.13 31.1384C53.625 31.0677 54.1436 31.0206 54.6622 31.0206C54.6857 31.0206 54.7329 31.0206 54.7564 31.0206C55.935 31.0206 57.09 31.2563 58.1272 31.657C58.6929 31.8692 59.235 32.1284 59.7536 32.4584C62.6293 34.2027 64.5386 37.3377 64.5386 40.9442C64.5386 44.5034 62.6293 47.662 59.7536 49.4063Z" fill="#6E0147"></path><path d="M59.7536 30.8312C59.235 30.5719 58.6929 30.3362 58.1272 30.1476C57.0665 29.794 55.935 29.6055 54.7565 29.6055C54.7329 29.6055 54.6858 29.6055 54.6622 29.6055C54.1436 29.6055 53.625 29.6526 53.13 29.6998C47.6143 30.454 43.3479 35.1919 43.3479 40.9198C43.3479 42.0983 43.5365 43.2062 43.8665 44.2669C44.0315 44.809 44.2436 45.3276 44.4793 45.8226C45.045 47.0012 45.8229 48.0855 46.7658 48.9812C47.4022 49.594 48.1093 50.1598 48.8872 50.6076C50.5843 51.6212 52.5643 52.2105 54.6858 52.2105C60.9322 52.2105 66 47.1426 66 40.8962C65.9529 36.5119 63.4308 32.6933 59.7536 30.8312ZM59.7536 49.4055C58.7872 49.9948 57.7265 50.3955 56.6186 50.6312C55.9822 50.7491 55.3222 50.8198 54.6622 50.8198C53.9786 50.8198 53.3422 50.7491 52.7058 50.6312C51.315 50.3483 50.0422 49.7826 48.9343 49.0048C47.685 48.109 46.6479 46.9305 45.9172 45.5633C45.6579 45.0683 45.4222 44.5498 45.2572 44.0076C44.9272 43.0412 44.7622 42.004 44.7622 40.9198C44.7622 35.9698 48.3922 31.8683 53.13 31.1376C53.625 31.0669 54.1436 31.0198 54.6622 31.0198C54.6858 31.0198 54.7329 31.0198 54.7565 31.0198C55.935 31.0198 57.09 31.2555 58.1272 31.6562C58.6929 31.8683 59.235 32.1276 59.7536 32.4576C62.6293 34.2019 64.5386 37.3369 64.5386 40.9433C64.5386 44.5026 62.6293 47.6612 59.7536 49.4055Z" fill="#6E0147"></path><path d="M60.3664 37.9731L53.6014 45.4217C53.4128 45.6338 53.1535 45.7517 52.8943 45.7517H52.8707C52.6114 45.7517 52.3521 45.6574 52.1635 45.4452L48.4864 41.7209C48.1093 41.3202 48.1093 40.7074 48.51 40.3066C48.9107 39.9295 49.5235 39.9295 49.9243 40.3302L52.8471 43.3002L58.905 36.6295C59.2821 36.2288 59.895 36.1816 60.3193 36.5588C60.6964 36.9359 60.7435 37.5724 60.3664 37.9731Z" fill="#6E0147"></path></svg>