<svg xmlns="http://www.w3.org/2000/svg" width="54" height="66" viewBox="0 0 54 66" fill="none"><path d="M37.5758 21.426H32.0271L30.9688 16.5233C30.8988 16.2042 30.6186 15.9708 30.2918 15.9708H30.2762C29.9416 15.9786 29.6614 16.2276 29.607 16.5544L27.856 26.8267L25.6459 13.0914C25.5914 12.7568 25.3036 12.5078 24.9611 12.5078C24.6187 12.5078 24.3308 12.7568 24.2763 13.0992L22.6498 23.4415L22.0118 21.8773C21.9028 21.6127 21.6538 21.4415 21.3658 21.4415H14.8445C14.4554 21.4415 14.1441 21.7528 14.1441 22.1419C14.1441 22.5232 14.4554 22.8345 14.8445 22.8345H20.9066L22.3074 26.2663C22.432 26.5543 22.7277 26.7333 23.0312 26.6943C23.3425 26.6554 23.5915 26.4142 23.6381 26.1107L24.9689 17.6283L27.1478 31.1924C27.2023 31.527 27.4903 31.7682 27.8327 31.776C28.1751 31.776 28.463 31.527 28.5252 31.1924L30.3697 20.3365L30.7898 22.2664C30.8598 22.5855 31.1401 22.8111 31.4669 22.8111H37.5758C37.9649 22.8111 38.2761 22.4999 38.2761 22.1186C38.2761 21.7372 37.9649 21.426 37.5758 21.426ZM43.7469 35.2545H10.2531C9.87182 35.2545 9.56062 35.5658 9.56062 35.9471C9.56062 36.3285 9.87182 36.6398 10.2531 36.6398H43.7469C44.1282 36.6398 44.4394 36.3285 44.4394 35.9471C44.4394 35.5658 44.1282 35.2545 43.7469 35.2545ZM43.7469 53.3321H10.2531C9.87182 53.3321 9.56062 53.6434 9.56062 54.0248C9.56062 54.4061 9.87182 54.7173 10.2531 54.7173H43.7469C44.1282 54.7173 44.4394 54.4061 44.4394 54.0248C44.4394 53.6434 44.1282 53.3321 43.7469 53.3321ZM43.7469 44.2895H10.2531C9.87182 44.2895 9.56062 44.6007 9.56062 44.982C9.56062 45.3711 9.87182 45.6824 10.2531 45.6824H43.7469C44.1282 45.6824 44.4394 45.3711 44.4394 44.982C44.4394 44.6007 44.1282 44.2895 43.7469 44.2895ZM43.7469 53.3321H10.2531C9.87182 53.3321 9.56062 53.6434 9.56062 54.0248C9.56062 54.4061 9.87182 54.7173 10.2531 54.7173H43.7469C44.1282 54.7173 44.4394 54.4061 44.4394 54.0248C44.4394 53.6434 44.1282 53.3321 43.7469 53.3321ZM43.7469 35.2545H10.2531C9.87182 35.2545 9.56062 35.5658 9.56062 35.9471C9.56062 36.3285 9.87182 36.6398 10.2531 36.6398H43.7469C44.1282 36.6398 44.4394 36.3285 44.4394 35.9471C44.4394 35.5658 44.1282 35.2545 43.7469 35.2545ZM43.7469 44.2895H10.2531C9.87182 44.2895 9.56062 44.6007 9.56062 44.982C9.56062 45.3711 9.87182 45.6824 10.2531 45.6824H43.7469C44.1282 45.6824 44.4394 45.3711 44.4394 44.982C44.4394 44.6007 44.1282 44.2895 43.7469 44.2895ZM37.5758 21.426H32.0271L30.9688 16.5233C30.8988 16.2042 30.6186 15.9708 30.2918 15.9708H30.2762C29.9416 15.9786 29.6614 16.2276 29.607 16.5544L27.856 26.8267L25.6459 13.0914C25.5914 12.7568 25.3036 12.5078 24.9611 12.5078C24.6187 12.5078 24.3308 12.7568 24.2763 13.0992L22.6498 23.4415L22.0118 21.8773C21.9028 21.6127 21.6538 21.4415 21.3658 21.4415H14.8445C14.4554 21.4415 14.1441 21.7528 14.1441 22.1419C14.1441 22.5232 14.4554 22.8345 14.8445 22.8345H20.9066L22.3074 26.2663C22.432 26.5543 22.7277 26.7333 23.0312 26.6943C23.3425 26.6554 23.5915 26.4142 23.6381 26.1107L24.9689 17.6283L27.1478 31.1924C27.2023 31.527 27.4903 31.7682 27.8327 31.776C28.1751 31.776 28.463 31.527 28.5252 31.1924L30.3697 20.3365L30.7898 22.2664C30.8598 22.5855 31.1401 22.8111 31.4669 22.8111H37.5758C37.9649 22.8111 38.2761 22.4999 38.2761 22.1186C38.2761 21.7372 37.9649 21.426 37.5758 21.426ZM37.5758 21.426H32.0271L30.9688 16.5233C30.8988 16.2042 30.6186 15.9708 30.2918 15.9708H30.2762C29.9416 15.9786 29.6614 16.2276 29.607 16.5544L27.856 26.8267L25.6459 13.0914C25.5914 12.7568 25.3036 12.5078 24.9611 12.5078C24.6187 12.5078 24.3308 12.7568 24.2763 13.0992L22.6498 23.4415L22.0118 21.8773C21.9028 21.6127 21.6538 21.4415 21.3658 21.4415H14.8445C14.4554 21.4415 14.1441 21.7528 14.1441 22.1419C14.1441 22.5232 14.4554 22.8345 14.8445 22.8345H20.9066L22.3074 26.2663C22.432 26.5543 22.7277 26.7333 23.0312 26.6943C23.3425 26.6554 23.5915 26.4142 23.6381 26.1107L24.9689 17.6283L27.1478 31.1924C27.2023 31.527 27.4903 31.7682 27.8327 31.776C28.1751 31.776 28.463 31.527 28.5252 31.1924L30.3697 20.3365L30.7898 22.2664C30.8598 22.5855 31.1401 22.8111 31.4669 22.8111H37.5758C37.9649 22.8111 38.2761 22.4999 38.2761 22.1186C38.2761 21.7372 37.9649 21.426 37.5758 21.426ZM43.7469 53.3321H10.2531C9.87182 53.3321 9.56062 53.6434 9.56062 54.0248C9.56062 54.4061 9.87182 54.7173 10.2531 54.7173H43.7469C44.1282 54.7173 44.4394 54.4061 44.4394 54.0248C44.4394 53.6434 44.1282 53.3321 43.7469 53.3321ZM43.7469 44.2895H10.2531C9.87182 44.2895 9.56062 44.6007 9.56062 44.982C9.56062 45.3711 9.87182 45.6824 10.2531 45.6824H43.7469C44.1282 45.6824 44.4394 45.3711 44.4394 44.982C44.4394 44.6007 44.1282 44.2895 43.7469 44.2895ZM43.7469 35.2545H10.2531C9.87182 35.2545 9.56062 35.5658 9.56062 35.9471C9.56062 36.3285 9.87182 36.6398 10.2531 36.6398H43.7469C44.1282 36.6398 44.4394 36.3285 44.4394 35.9471C44.4394 35.5658 44.1282 35.2545 43.7469 35.2545ZM43.7469 35.2545H10.2531C9.87182 35.2545 9.56062 35.5658 9.56062 35.9471C9.56062 36.3285 9.87182 36.6398 10.2531 36.6398H43.7469C44.1282 36.6398 44.4394 36.3285 44.4394 35.9471C44.4394 35.5658 44.1282 35.2545 43.7469 35.2545ZM43.7469 44.2895H10.2531C9.87182 44.2895 9.56062 44.6007 9.56062 44.982C9.56062 45.3711 9.87182 45.6824 10.2531 45.6824H43.7469C44.1282 45.6824 44.4394 45.3711 44.4394 44.982C44.4394 44.6007 44.1282 44.2895 43.7469 44.2895ZM43.7469 53.3321H10.2531C9.87182 53.3321 9.56062 53.6434 9.56062 54.0248C9.56062 54.4061 9.87182 54.7173 10.2531 54.7173H43.7469C44.1282 54.7173 44.4394 54.4061 44.4394 54.0248C44.4394 53.6434 44.1282 53.3321 43.7469 53.3321ZM37.5758 21.426H32.0271L30.9688 16.5233C30.8988 16.2042 30.6186 15.9708 30.2918 15.9708H30.2762C29.9416 15.9786 29.6614 16.2276 29.607 16.5544L27.856 26.8267L25.6459 13.0914C25.5914 12.7568 25.3036 12.5078 24.9611 12.5078C24.6187 12.5078 24.3308 12.7568 24.2763 13.0992L22.6498 23.4415L22.0118 21.8773C21.9028 21.6127 21.6538 21.4415 21.3658 21.4415H14.8445C14.4554 21.4415 14.1441 21.7528 14.1441 22.1419C14.1441 22.5232 14.4554 22.8345 14.8445 22.8345H20.9066L22.3074 26.2663C22.432 26.5543 22.7277 26.7333 23.0312 26.6943C23.3425 26.6554 23.5915 26.4142 23.6381 26.1107L24.9689 17.6283L27.1478 31.1924C27.2023 31.527 27.4903 31.7682 27.8327 31.776C28.1751 31.776 28.463 31.527 28.5252 31.1924L30.3697 20.3365L30.7898 22.2664C30.8598 22.5855 31.1401 22.8111 31.4669 22.8111H37.5758C37.9649 22.8111 38.2761 22.4999 38.2761 22.1186C38.2761 21.7372 37.9649 21.426 37.5758 21.426ZM37.5758 21.426H32.0271L30.9688 16.5233C30.8988 16.2042 30.6186 15.9708 30.2918 15.9708H30.2762C29.9416 15.9786 29.6614 16.2276 29.607 16.5544L27.856 26.8267L25.6459 13.0914C25.5914 12.7568 25.3036 12.5078 24.9611 12.5078C24.6187 12.5078 24.3308 12.7568 24.2763 13.0992L22.6498 23.4415L22.0118 21.8773C21.9028 21.6127 21.6538 21.4415 21.3658 21.4415H14.8445C14.4554 21.4415 14.1441 21.7528 14.1441 22.1419C14.1441 22.5232 14.4554 22.8345 14.8445 22.8345H20.9066L22.3074 26.2663C22.432 26.5543 22.7277 26.7333 23.0312 26.6943C23.3425 26.6554 23.5915 26.4142 23.6381 26.1107L24.9689 17.6283L27.1478 31.1924C27.2023 31.527 27.4903 31.7682 27.8327 31.776C28.1751 31.776 28.463 31.527 28.5252 31.1924L30.3697 20.3365L30.7898 22.2664C30.8598 22.5855 31.1401 22.8111 31.4669 22.8111H37.5758C37.9649 22.8111 38.2761 22.4999 38.2761 22.1186C38.2761 21.7372 37.9649 21.426 37.5758 21.426ZM43.7469 53.3321H10.2531C9.87182 53.3321 9.56062 53.6434 9.56062 54.0248C9.56062 54.4061 9.87182 54.7173 10.2531 54.7173H43.7469C44.1282 54.7173 44.4394 54.4061 44.4394 54.0248C44.4394 53.6434 44.1282 53.3321 43.7469 53.3321ZM43.7469 44.2895H10.2531C9.87182 44.2895 9.56062 44.6007 9.56062 44.982C9.56062 45.3711 9.87182 45.6824 10.2531 45.6824H43.7469C44.1282 45.6824 44.4394 45.3711 44.4394 44.982C44.4394 44.6007 44.1282 44.2895 43.7469 44.2895ZM43.7469 35.2545H10.2531C9.87182 35.2545 9.56062 35.5658 9.56062 35.9471C9.56062 36.3285 9.87182 36.6398 10.2531 36.6398H43.7469C44.1282 36.6398 44.4394 36.3285 44.4394 35.9471C44.4394 35.5658 44.1282 35.2545 43.7469 35.2545ZM10.2531 36.6398H43.7469C44.1282 36.6398 44.4394 36.3285 44.4394 35.9471C44.4394 35.5658 44.1282 35.2545 43.7469 35.2545H10.2531C9.87182 35.2545 9.56062 35.5658 9.56062 35.9471C9.56062 36.3285 9.87182 36.6398 10.2531 36.6398ZM43.7469 44.2895H10.2531C9.87182 44.2895 9.56062 44.6007 9.56062 44.982C9.56062 45.3711 9.87182 45.6824 10.2531 45.6824H43.7469C44.1282 45.6824 44.4394 45.3711 44.4394 44.982C44.4394 44.6007 44.1282 44.2895 43.7469 44.2895ZM43.7469 53.3321H10.2531C9.87182 53.3321 9.56062 53.6434 9.56062 54.0248C9.56062 54.4061 9.87182 54.7173 10.2531 54.7173H43.7469C44.1282 54.7173 44.4394 54.4061 44.4394 54.0248C44.4394 53.6434 44.1282 53.3321 43.7469 53.3321ZM14.8445 22.8345H20.9066L22.3074 26.2663C22.432 26.5543 22.7277 26.7333 23.0312 26.6943C23.3425 26.6554 23.5915 26.4142 23.6381 26.1107L24.9689 17.6283L27.1478 31.1924C27.2023 31.527 27.4903 31.7682 27.8327 31.776C28.1751 31.776 28.463 31.527 28.5252 31.1924L30.3697 20.3365L30.7898 22.2664C30.8598 22.5855 31.1401 22.8111 31.4669 22.8111H37.5758C37.9649 22.8111 38.2761 22.4999 38.2761 22.1186C38.2761 21.7372 37.9649 21.426 37.5758 21.426H32.0271L30.9688 16.5233C30.8988 16.2042 30.6186 15.9708 30.2918 15.9708H30.2762C29.9416 15.9786 29.6614 16.2276 29.607 16.5544L27.856 26.8267L25.6459 13.0914C25.5914 12.7568 25.3036 12.5078 24.9611 12.5078C24.6187 12.5078 24.3308 12.7568 24.2763 13.0992L22.6498 23.4415L22.0118 21.8773C21.9028 21.6127 21.6538 21.4415 21.3658 21.4415H14.8445C14.4554 21.4415 14.1441 21.7528 14.1441 22.1419C14.1441 22.5232 14.4554 22.8345 14.8445 22.8345ZM52.3226 0.539062H1.67736C1.28826 0.539062 0.977051 0.850361 0.977051 1.23946V65.2542C0.977051 65.6433 1.28826 65.9545 1.67736 65.9545H52.3226C52.7117 65.9545 53.0229 65.6433 53.0229 65.2542V1.23946C53.0229 0.850361 52.7117 0.539062 52.3226 0.539062ZM20.432 1.93207H33.568V4.64798C33.568 6.1499 32.3462 7.36389 30.8521 7.36389H23.1479C21.6538 7.36389 20.432 6.1499 20.432 4.64798V1.93207ZM51.6299 64.5616H2.36996V1.93207H19.0468V4.64798C19.0468 6.91252 20.8834 8.75685 23.1479 8.75685H30.852C33.1166 8.75685 34.9532 6.91252 34.9532 4.64798V1.93207H51.6299L51.6299 64.5616ZM9.56062 35.9471C9.56062 36.3285 9.87182 36.6398 10.2531 36.6398H43.7469C44.1282 36.6398 44.4394 36.3285 44.4394 35.9471C44.4394 35.5658 44.1282 35.2545 43.7469 35.2545H10.2531C9.87182 35.2545 9.56062 35.5658 9.56062 35.9471ZM43.7469 44.2895H10.2531C9.87182 44.2895 9.56062 44.6007 9.56062 44.982C9.56062 45.3711 9.87182 45.6824 10.2531 45.6824H43.7469C44.1282 45.6824 44.4394 45.3711 44.4394 44.982C44.4394 44.6007 44.1282 44.2895 43.7469 44.2895ZM43.7469 53.3321H10.2531C9.87182 53.3321 9.56062 53.6434 9.56062 54.0248C9.56062 54.4061 9.87182 54.7173 10.2531 54.7173H43.7469C44.1282 54.7173 44.4394 54.4061 44.4394 54.0248C44.4394 53.6434 44.1282 53.3321 43.7469 53.3321ZM30.9688 16.5233C30.8988 16.2042 30.6186 15.9708 30.2918 15.9708H30.2762C29.9416 15.9786 29.6614 16.2276 29.607 16.5544L27.856 26.8267L25.6459 13.0914C25.5914 12.7568 25.3036 12.5078 24.9611 12.5078C24.6187 12.5078 24.3308 12.7568 24.2763 13.0992L22.6498 23.4415L22.0118 21.8773C21.9028 21.6127 21.6538 21.4415 21.3658 21.4415H14.8445C14.4554 21.4415 14.1441 21.7528 14.1441 22.1419C14.1441 22.5232 14.4554 22.8345 14.8445 22.8345H20.9066L22.3074 26.2663C22.432 26.5543 22.7277 26.7333 23.0312 26.6943C23.3425 26.6554 23.5915 26.4142 23.6381 26.1107L24.9689 17.6283L27.1478 31.1924C27.2023 31.527 27.4903 31.7682 27.8327 31.776C28.1751 31.776 28.463 31.527 28.5252 31.1924L30.3697 20.3365L30.7898 22.2664C30.8598 22.5855 31.1401 22.8111 31.4669 22.8111H37.5758C37.9649 22.8111 38.2761 22.4999 38.2761 22.1186C38.2761 21.7372 37.9649 21.426 37.5758 21.426H32.0271L30.9688 16.5233ZM37.5758 21.426H32.0271L30.9688 16.5233C30.8988 16.2042 30.6186 15.9708 30.2918 15.9708H30.2762C29.9416 15.9786 29.6614 16.2276 29.607 16.5544L27.856 26.8267L25.6459 13.0914C25.5914 12.7568 25.3036 12.5078 24.9611 12.5078C24.6187 12.5078 24.3308 12.7568 24.2763 13.0992L22.6498 23.4415L22.0118 21.8773C21.9028 21.6127 21.6538 21.4415 21.3658 21.4415H14.8445C14.4554 21.4415 14.1441 21.7528 14.1441 22.1419C14.1441 22.5232 14.4554 22.8345 14.8445 22.8345H20.9066L22.3074 26.2663C22.432 26.5543 22.7277 26.7333 23.0312 26.6943C23.3425 26.6554 23.5915 26.4142 23.6381 26.1107L24.9689 17.6283L27.1478 31.1924C27.2023 31.527 27.4903 31.7682 27.8327 31.776C28.1751 31.776 28.463 31.527 28.5252 31.1924L30.3697 20.3365L30.7898 22.2664C30.8598 22.5855 31.1401 22.8111 31.4669 22.8111H37.5758C37.9649 22.8111 38.2761 22.4999 38.2761 22.1186C38.2761 21.7372 37.9649 21.426 37.5758 21.426ZM43.7469 53.3321H10.2531C9.87182 53.3321 9.56062 53.6434 9.56062 54.0248C9.56062 54.4061 9.87182 54.7173 10.2531 54.7173H43.7469C44.1282 54.7173 44.4394 54.4061 44.4394 54.0248C44.4394 53.6434 44.1282 53.3321 43.7469 53.3321ZM43.7469 44.2895H10.2531C9.87182 44.2895 9.56062 44.6007 9.56062 44.982C9.56062 45.3711 9.87182 45.6824 10.2531 45.6824H43.7469C44.1282 45.6824 44.4394 45.3711 44.4394 44.982C44.4394 44.6007 44.1282 44.2895 43.7469 44.2895ZM43.7469 35.2545H10.2531C9.87182 35.2545 9.56062 35.5658 9.56062 35.9471C9.56062 36.3285 9.87182 36.6398 10.2531 36.6398H43.7469C44.1282 36.6398 44.4394 36.3285 44.4394 35.9471C44.4394 35.5658 44.1282 35.2545 43.7469 35.2545ZM43.7469 35.2545H10.2531C9.87182 35.2545 9.56062 35.5658 9.56062 35.9471C9.56062 36.3285 9.87182 36.6398 10.2531 36.6398H43.7469C44.1282 36.6398 44.4394 36.3285 44.4394 35.9471C44.4394 35.5658 44.1282 35.2545 43.7469 35.2545ZM43.7469 44.2895H10.2531C9.87182 44.2895 9.56062 44.6007 9.56062 44.982C9.56062 45.3711 9.87182 45.6824 10.2531 45.6824H43.7469C44.1282 45.6824 44.4394 45.3711 44.4394 44.982C44.4394 44.6007 44.1282 44.2895 43.7469 44.2895ZM43.7469 53.3321H10.2531C9.87182 53.3321 9.56062 53.6434 9.56062 54.0248C9.56062 54.4061 9.87182 54.7173 10.2531 54.7173H43.7469C44.1282 54.7173 44.4394 54.4061 44.4394 54.0248C44.4394 53.6434 44.1282 53.3321 43.7469 53.3321ZM37.5758 21.426H32.0271L30.9688 16.5233C30.8988 16.2042 30.6186 15.9708 30.2918 15.9708H30.2762C29.9416 15.9786 29.6614 16.2276 29.607 16.5544L27.856 26.8267L25.6459 13.0914C25.5914 12.7568 25.3036 12.5078 24.9611 12.5078C24.6187 12.5078 24.3308 12.7568 24.2763 13.0992L22.6498 23.4415L22.0118 21.8773C21.9028 21.6127 21.6538 21.4415 21.3658 21.4415H14.8445C14.4554 21.4415 14.1441 21.7528 14.1441 22.1419C14.1441 22.5232 14.4554 22.8345 14.8445 22.8345H20.9066L22.3074 26.2663C22.432 26.5543 22.7277 26.7333 23.0312 26.6943C23.3425 26.6554 23.5915 26.4142 23.6381 26.1107L24.9689 17.6283L27.1478 31.1924C27.2023 31.527 27.4903 31.7682 27.8327 31.776C28.1751 31.776 28.463 31.527 28.5252 31.1924L30.3697 20.3365L30.7898 22.2664C30.8598 22.5855 31.1401 22.8111 31.4669 22.8111H37.5758C37.9649 22.8111 38.2761 22.4999 38.2761 22.1186C38.2761 21.7372 37.9649 21.426 37.5758 21.426ZM37.5758 21.426H32.0271L30.9688 16.5233C30.8988 16.2042 30.6186 15.9708 30.2918 15.9708H30.2762C29.9416 15.9786 29.6614 16.2276 29.607 16.5544L27.856 26.8267L25.6459 13.0914C25.5914 12.7568 25.3036 12.5078 24.9611 12.5078C24.6187 12.5078 24.3308 12.7568 24.2763 13.0992L22.6498 23.4415L22.0118 21.8773C21.9028 21.6127 21.6538 21.4415 21.3658 21.4415H14.8445C14.4554 21.4415 14.1441 21.7528 14.1441 22.1419C14.1441 22.5232 14.4554 22.8345 14.8445 22.8345H20.9066L22.3074 26.2663C22.432 26.5543 22.7277 26.7333 23.0312 26.6943C23.3425 26.6554 23.5915 26.4142 23.6381 26.1107L24.9689 17.6283L27.1478 31.1924C27.2023 31.527 27.4903 31.7682 27.8327 31.776C28.1751 31.776 28.463 31.527 28.5252 31.1924L30.3697 20.3365L30.7898 22.2664C30.8598 22.5855 31.1401 22.8111 31.4669 22.8111H37.5758C37.9649 22.8111 38.2761 22.4999 38.2761 22.1186C38.2761 21.7372 37.9649 21.426 37.5758 21.426ZM43.7469 53.3321H10.2531C9.87182 53.3321 9.56062 53.6434 9.56062 54.0248C9.56062 54.4061 9.87182 54.7173 10.2531 54.7173H43.7469C44.1282 54.7173 44.4394 54.4061 44.4394 54.0248C44.4394 53.6434 44.1282 53.3321 43.7469 53.3321ZM43.7469 44.2895H10.2531C9.87182 44.2895 9.56062 44.6007 9.56062 44.982C9.56062 45.3711 9.87182 45.6824 10.2531 45.6824H43.7469C44.1282 45.6824 44.4394 45.3711 44.4394 44.982C44.4394 44.6007 44.1282 44.2895 43.7469 44.2895ZM43.7469 35.2545H10.2531C9.87182 35.2545 9.56062 35.5658 9.56062 35.9471C9.56062 36.3285 9.87182 36.6398 10.2531 36.6398H43.7469C44.1282 36.6398 44.4394 36.3285 44.4394 35.9471C44.4394 35.5658 44.1282 35.2545 43.7469 35.2545ZM43.7469 53.3321H10.2531C9.87182 53.3321 9.56062 53.6434 9.56062 54.0248C9.56062 54.4061 9.87182 54.7173 10.2531 54.7173H43.7469C44.1282 54.7173 44.4394 54.4061 44.4394 54.0248C44.4394 53.6434 44.1282 53.3321 43.7469 53.3321ZM43.7469 35.2545H10.2531C9.87182 35.2545 9.56062 35.5658 9.56062 35.9471C9.56062 36.3285 9.87182 36.6398 10.2531 36.6398H43.7469C44.1282 36.6398 44.4394 36.3285 44.4394 35.9471C44.4394 35.5658 44.1282 35.2545 43.7469 35.2545ZM43.7469 44.2895H10.2531C9.87182 44.2895 9.56062 44.6007 9.56062 44.982C9.56062 45.3711 9.87182 45.6824 10.2531 45.6824H43.7469C44.1282 45.6824 44.4394 45.3711 44.4394 44.982C44.4394 44.6007 44.1282 44.2895 43.7469 44.2895ZM37.5758 21.426H32.0271L30.9688 16.5233C30.8988 16.2042 30.6186 15.9708 30.2918 15.9708H30.2762C29.9416 15.9786 29.6614 16.2276 29.607 16.5544L27.856 26.8267L25.6459 13.0914C25.5914 12.7568 25.3036 12.5078 24.9611 12.5078C24.6187 12.5078 24.3308 12.7568 24.2763 13.0992L22.6498 23.4415L22.0118 21.8773C21.9028 21.6127 21.6538 21.4415 21.3658 21.4415H14.8445C14.4554 21.4415 14.1441 21.7528 14.1441 22.1419C14.1441 22.5232 14.4554 22.8345 14.8445 22.8345H20.9066L22.3074 26.2663C22.432 26.5543 22.7277 26.7333 23.0312 26.6943C23.3425 26.6554 23.5915 26.4142 23.6381 26.1107L24.9689 17.6283L27.1478 31.1924C27.2023 31.527 27.4903 31.7682 27.8327 31.776C28.1751 31.776 28.463 31.527 28.5252 31.1924L30.3697 20.3365L30.7898 22.2664C30.8598 22.5855 31.1401 22.8111 31.4669 22.8111H37.5758C37.9649 22.8111 38.2761 22.4999 38.2761 22.1186C38.2761 21.7372 37.9649 21.426 37.5758 21.426ZM37.5758 21.426H32.0271L30.9688 16.5233C30.8988 16.2042 30.6186 15.9708 30.2918 15.9708H30.2762C29.9416 15.9786 29.6614 16.2276 29.607 16.5544L27.856 26.8267L25.6459 13.0914C25.5914 12.7568 25.3036 12.5078 24.9611 12.5078C24.6187 12.5078 24.3308 12.7568 24.2763 13.0992L22.6498 23.4415L22.0118 21.8773C21.9028 21.6127 21.6538 21.4415 21.3658 21.4415H14.8445C14.4554 21.4415 14.1441 21.7528 14.1441 22.1419C14.1441 22.5232 14.4554 22.8345 14.8445 22.8345H20.9066L22.3074 26.2663C22.432 26.5543 22.7277 26.7333 23.0312 26.6943C23.3425 26.6554 23.5915 26.4142 23.6381 26.1107L24.9689 17.6283L27.1478 31.1924C27.2023 31.527 27.4903 31.7682 27.8327 31.776C28.1751 31.776 28.463 31.527 28.5252 31.1924L30.3697 20.3365L30.7898 22.2664C30.8598 22.5855 31.1401 22.8111 31.4669 22.8111H37.5758C37.9649 22.8111 38.2761 22.4999 38.2761 22.1186C38.2761 21.7372 37.9649 21.426 37.5758 21.426ZM43.7469 35.2545H10.2531C9.87182 35.2545 9.56062 35.5658 9.56062 35.9471C9.56062 36.3285 9.87182 36.6398 10.2531 36.6398H43.7469C44.1282 36.6398 44.4394 36.3285 44.4394 35.9471C44.4394 35.5658 44.1282 35.2545 43.7469 35.2545ZM43.7469 53.3321H10.2531C9.87182 53.3321 9.56062 53.6434 9.56062 54.0248C9.56062 54.4061 9.87182 54.7173 10.2531 54.7173H43.7469C44.1282 54.7173 44.4394 54.4061 44.4394 54.0248C44.4394 53.6434 44.1282 53.3321 43.7469 53.3321ZM43.7469 44.2895H10.2531C9.87182 44.2895 9.56062 44.6007 9.56062 44.982C9.56062 45.3711 9.87182 45.6824 10.2531 45.6824H43.7469C44.1282 45.6824 44.4394 45.3711 44.4394 44.982C44.4394 44.6007 44.1282 44.2895 43.7469 44.2895ZM43.7469 35.2545H10.2531C9.87182 35.2545 9.56062 35.5658 9.56062 35.9471C9.56062 36.3285 9.87182 36.6398 10.2531 36.6398H43.7469C44.1282 36.6398 44.4394 36.3285 44.4394 35.9471C44.4394 35.5658 44.1282 35.2545 43.7469 35.2545ZM43.7469 44.2895H10.2531C9.87182 44.2895 9.56062 44.6007 9.56062 44.982C9.56062 45.3711 9.87182 45.6824 10.2531 45.6824H43.7469C44.1282 45.6824 44.4394 45.3711 44.4394 44.982C44.4394 44.6007 44.1282 44.2895 43.7469 44.2895ZM43.7469 53.3321H10.2531C9.87182 53.3321 9.56062 53.6434 9.56062 54.0248C9.56062 54.4061 9.87182 54.7173 10.2531 54.7173H43.7469C44.1282 54.7173 44.4394 54.4061 44.4394 54.0248C44.4394 53.6434 44.1282 53.3321 43.7469 53.3321ZM37.5758 21.426H32.0271L30.9688 16.5233C30.8988 16.2042 30.6186 15.9708 30.2918 15.9708H30.2762C29.9416 15.9786 29.6614 16.2276 29.607 16.5544L27.856 26.8267L25.6459 13.0914C25.5914 12.7568 25.3036 12.5078 24.9611 12.5078C24.6187 12.5078 24.3308 12.7568 24.2763 13.0992L22.6498 23.4415L22.0118 21.8773C21.9028 21.6127 21.6538 21.4415 21.3658 21.4415H14.8445C14.4554 21.4415 14.1441 21.7528 14.1441 22.1419C14.1441 22.5232 14.4554 22.8345 14.8445 22.8345H20.9066L22.3074 26.2663C22.432 26.5543 22.7277 26.7333 23.0312 26.6943C23.3425 26.6554 23.5915 26.4142 23.6381 26.1107L24.9689 17.6283L27.1478 31.1924C27.2023 31.527 27.4903 31.7682 27.8327 31.776C28.1751 31.776 28.463 31.527 28.5252 31.1924L30.3697 20.3365L30.7898 22.2664C30.8598 22.5855 31.1401 22.8111 31.4669 22.8111H37.5758C37.9649 22.8111 38.2761 22.4999 38.2761 22.1186C38.2761 21.7372 37.9649 21.426 37.5758 21.426Z" fill="#6E0147"></path></svg>