<svg xmlns="http://www.w3.org/2000/svg" width="52" height="66" viewBox="0 0 52 66" fill="none"><path d="M51.6927 17.9248C51.5999 17.7392 51.4375 17.6232 51.2288 17.6232H47.7033L51.3448 11.871C51.4607 11.7087 51.4607 11.4999 51.3448 11.3376C51.252 11.1752 51.0896 11.0824 50.9041 11.0824H45.6853C45.4998 11.0824 45.3374 11.1752 45.2447 11.3376L43.5979 14.608C42.299 13.6106 41.0233 12.7292 39.7012 12.0102L41.464 7.67287V7.64968C41.5104 7.44093 41.4872 7.25537 41.348 7.11621C41.1857 6.95385 41.0001 6.90745 40.8145 6.97704L37.4746 8.06717L39.1677 1.47998C39.2141 1.29443 39.1677 1.08568 39.0054 0.969709C38.8662 0.853738 38.6807 0.807349 38.4951 0.876932L33.5315 2.50053C33.3692 2.54692 33.23 2.68609 33.1836 2.87164L32.1631 9.57481C28.6143 9.15731 24.3466 9.50522 18.7104 10.8041C15.4863 11.5463 12.1464 12.5901 9.73415 15.1646C8.11055 16.9042 6.88125 18.9221 6.06944 21.172C5.72153 22.1693 5.4432 23.1899 5.23445 24.2104L5.16487 24.5351C4.93292 25.3933 4.6314 26.2515 4.23709 27.0633C3.95876 27.5968 3.75001 28.1535 3.61085 28.7333C3.49487 29.2436 3.63404 29.7771 3.98196 30.1714C4.14432 30.3569 4.35306 30.5425 4.53862 30.728C5.07209 31.2151 5.4432 31.5862 5.62875 32.1429C5.79111 32.5836 5.67514 32.9547 5.51278 33.5809C5.46639 33.7201 5.4432 33.8593 5.39681 33.9984C5.16487 34.8102 4.93292 35.6916 4.56181 36.5034C4.02834 37.6631 3.17015 38.6141 2.24238 39.6115C1.66252 40.2377 1.08267 40.8639 0.572391 41.583C0.317253 41.9309 0.201281 42.3948 0.270864 42.8123C0.340447 43.2298 0.572389 43.6009 0.943498 43.856C1.19864 44.0416 1.47697 44.1807 1.7553 44.3199C2.52071 44.7142 3.44849 45.2013 3.63404 46.0827C3.70362 46.4538 3.70362 46.8249 3.63404 47.196C3.61085 47.2888 3.56446 47.3816 3.51807 47.4975C3.44849 47.6367 3.3789 47.7991 3.30932 47.9846C3.17016 48.4949 3.26293 49.0052 3.33251 49.3531C3.4021 49.6546 3.51807 50.0257 3.75001 50.3736C3.84279 50.5128 3.95876 50.6056 4.05154 50.7215C4.14432 50.8143 4.2139 50.8839 4.26029 50.9535C4.32987 51.0695 4.23709 51.2782 3.98196 51.6725C3.93557 51.7421 3.88918 51.8117 3.86598 51.8813C3.77321 52.0436 3.72682 52.2292 3.75001 52.3915C3.77321 52.5307 3.86598 52.7626 4.09793 52.9018C5.00251 53.4585 5.51278 53.876 5.74473 54.6182C5.8607 55.1748 5.8375 55.7547 5.67514 56.2882C5.39681 57.2159 5.42 58.1901 5.76792 59.0947C6.06944 60.324 7.27555 61.1126 8.55124 60.8575H8.57443C10.8939 60.3008 13.2597 59.605 15.6487 58.7932C17.7594 58.0973 18.7335 59.257 18.7799 59.3034L18.8263 59.3498C20.2412 60.8807 21.3081 62.713 21.9112 64.7077C22.1431 65.3803 22.7694 65.821 23.4652 65.8442H43.2731C43.8298 65.8442 44.3633 65.5659 44.6648 65.0788C44.9663 64.5917 44.9895 64.0119 44.7576 63.5016C43.4587 60.6255 42.6469 57.5639 42.3454 54.4326V54.4094C41.9743 51.2318 42.4381 48.031 43.7138 45.1085C44.4561 43.5545 45.3838 42.0932 46.4508 40.748L46.474 40.7248C48.4919 38.011 50.3706 35.4597 50.4402 30.8208C50.5098 28.1303 50.1619 25.4397 49.466 22.842C49.3501 22.4245 49.2109 22.007 49.0485 21.6127L51.6231 18.551V18.5278C51.7623 18.2959 51.7855 18.1103 51.6927 17.9248ZM34.1346 3.35873L37.9384 2.12943L36.2221 8.73981C36.1757 8.92536 36.2221 9.13411 36.3844 9.25008C36.5236 9.36605 36.7091 9.41245 36.8947 9.34286L40.1187 8.29912L35.6654 19.2004L36.1989 12.6133C36.1989 12.4509 36.1293 12.2885 36.0133 12.1958L35.9901 12.1726C35.9205 12.1494 35.8278 12.103 35.6886 12.103C35.6422 12.103 35.5958 12.103 35.5494 12.1262L32.6733 13.054L34.1346 3.35873ZM48.2367 23.1203C48.9094 25.6021 49.2109 28.1535 49.1645 30.728C49.0949 34.9494 47.3321 37.3384 45.4534 39.8666C44.3169 41.2814 43.3427 42.8355 42.5541 44.4823V44.5055C41.1856 47.6367 40.6754 51.0926 41.0697 54.5022C41.3712 57.7958 42.2294 60.9734 43.5979 64.0119C43.6442 64.1047 43.6443 64.2206 43.5747 64.3366C43.5051 64.4294 43.4123 64.499 43.2963 64.499H23.4884C23.3492 64.499 23.2101 64.4062 23.1637 64.2902C22.491 62.1331 21.3313 60.1152 19.8005 58.4452C19.5917 58.1901 18.1073 56.5897 15.2544 57.5175C12.9118 58.3061 10.5691 59.0019 8.2961 59.5586C7.71624 59.6514 7.18277 59.3034 7.04361 58.7236L7.02041 58.6308C6.76528 58.0046 6.74208 57.3087 6.95083 56.6593C7.18277 55.8939 7.20597 55.0589 7.04361 54.2935L7.02041 54.2471C6.69569 53.2033 6.02306 52.5771 5.28084 52.09C5.55917 51.6261 5.79111 50.9767 5.39681 50.304C5.28084 50.0953 5.11848 49.9329 5.0025 49.817C4.93292 49.7474 4.86334 49.6778 4.81695 49.6314C4.70098 49.4922 4.65459 49.2835 4.6082 49.0979C4.53862 48.7732 4.51543 48.5413 4.56181 48.3789C4.58501 48.3093 4.6314 48.2166 4.67779 48.1006C4.77056 47.9382 4.86334 47.7063 4.90973 47.4511C5.00251 46.9177 5.00251 46.3842 4.90973 45.8507C4.6314 44.3199 3.26293 43.6241 2.33516 43.1602H2.31197C2.08002 43.0442 1.87127 42.9282 1.66252 42.7891C1.59294 42.7427 1.54655 42.6499 1.54655 42.6035C1.52336 42.5107 1.54655 42.4412 1.59294 42.3484C2.05683 41.6989 2.5903 41.1191 3.17015 40.516C4.12112 39.4955 5.09528 38.4285 5.72153 37.0601C6.13903 36.1555 6.39417 35.2277 6.6493 34.3463C6.6725 34.2072 6.71889 34.0912 6.76527 33.9752C6.95083 33.3258 7.15958 32.6068 6.88125 31.7486C6.55653 30.8208 5.93028 30.2409 5.4432 29.7771C5.28084 29.6147 5.09528 29.4523 4.95612 29.3132C4.88653 29.2436 4.86334 29.1508 4.88653 29.058C5.0025 28.571 5.18806 28.1303 5.42 27.6896L5.4432 27.6664C5.88389 26.785 6.20861 25.834 6.46375 24.8831L6.55653 24.5119C6.76528 23.5378 7.02041 22.5636 7.34513 21.6127C8.08735 19.5484 9.22388 17.6928 10.7315 16.0692C12.9118 13.773 16.0198 12.7988 19.0351 12.103C24.4625 10.8505 28.5679 10.5026 31.9775 10.8969L31.56 13.7266C31.5136 13.9121 31.5832 14.0977 31.7224 14.2137C31.8615 14.3296 32.0703 14.3528 32.2326 14.3064L35.1783 13.3555L34.4129 22.494C34.3897 22.726 34.5289 22.9347 34.7608 23.0275C34.8072 23.0507 34.8304 23.0507 34.8768 23.0507C34.9464 23.0507 35.016 23.0275 35.0624 23.0043C35.2015 22.9579 35.3175 22.8652 35.3871 22.726L39.2373 13.2627C40.513 13.9817 41.7655 14.8399 43.0412 15.8373L40.3738 21.172C40.2811 21.3343 40.2811 21.5431 40.3738 21.6822C40.4666 21.8214 40.6522 21.9374 40.8145 21.9374H43.8762L40.3275 30.3801C40.2347 30.5889 40.3043 30.844 40.513 30.9832C40.6058 31.0527 40.7218 31.0527 40.7914 31.0527C40.9537 31.0527 41.0929 31.0064 41.1856 30.8904L48.0976 22.7028C48.144 22.842 48.1903 22.9811 48.2367 23.1203ZM42.5541 27.6432L45.1055 21.5431C45.1519 21.3807 45.1519 21.2184 45.0591 21.0792L45.0359 21.056C44.9895 21.0096 44.8272 20.8704 44.6416 20.8704H41.6032L45.9869 12.103H49.9763L46.3116 17.8552C46.1956 18.0175 46.1956 18.2263 46.3116 18.3886C46.4044 18.551 46.5667 18.6438 46.7523 18.6438H50.1387L42.5541 27.6432Z" fill="#6E0147"></path><path d="M32.0937 21.3577C32.001 21.1953 31.8618 21.1025 31.7226 21.1025C31.5371 21.1025 31.3979 21.1721 31.3283 21.3113L30.1454 23.4451L27.826 19.2006C27.7564 19.0614 27.594 18.9686 27.4317 18.9918C27.2693 18.9918 27.1533 19.0846 27.0838 19.2238L25.2514 22.5174C25.1818 22.6565 25.1818 22.7957 25.2514 22.9349L29.7279 29.4989C29.7975 29.638 29.9599 29.7076 30.099 29.7076C30.2382 29.7076 30.3774 29.6148 30.4469 29.4757L31.4907 27.5969L35.5497 32.7461C35.6193 32.8388 35.7352 32.9084 35.8744 32.9084C35.944 32.9084 35.9904 32.8852 36.06 32.862C36.1527 32.8388 36.1991 32.7461 36.2223 32.6997C36.2919 32.5837 36.2919 32.4677 36.2687 32.3518L32.0937 21.3577ZM31.7226 26.53C31.6298 26.4372 31.5371 26.3908 31.3979 26.3908H31.3747H31.3283C31.2587 26.414 31.1196 26.4604 31.05 26.5996L30.0294 28.4551L26.0864 22.6797L27.4317 20.2675L29.7279 24.5353C29.7975 24.6744 29.9599 24.7672 30.1222 24.744C30.2846 24.744 30.4005 24.6512 30.4701 24.5121L31.6067 22.471L34.4827 30.0323L31.7226 26.53Z" fill="#6E0147"></path></svg>