<svg xmlns="http://www.w3.org/2000/svg" width="56" height="66" viewBox="0 0 56 66" fill="none"><path fill-rule="evenodd" clip-rule="evenodd" d="M53.2299 20.1155L33.9452 19.3297H30.7254L31.6715 18.5578C33.0202 17.4659 33.7924 15.8456 33.7924 14.114C33.7924 10.9567 31.2192 8.38355 28.0551 8.38355C24.8978 8.38355 22.3245 10.9567 22.3245 14.114C22.3245 15.8456 23.0967 17.4659 24.4458 18.5578L25.3915 19.3297H23.0132C22.2899 19.3297 21.6291 19.6009 21.1214 20.1155L10.8084 30.4219H5.29348C3.35998 30.4219 1.78846 32.0005 1.78846 33.9339C1.78846 35.8672 3.35998 37.4388 5.29348 37.4388H20.8226V46.0622L14.6608 49.0248C13.7569 49.4559 13.145 50.2418 12.9361 51.2224L10.9473 60.715C10.7109 61.8556 11.003 63.0378 11.7402 63.9488C12.4913 64.8668 13.583 65.3953 14.7515 65.3953C16.5804 65.3953 18.1797 64.0949 18.5553 62.3076L20.0158 55.3254L25.4889 52.8636H30.6212L36.1011 55.3254L37.5616 62.3076C37.9996 64.4009 40.0581 65.7431 42.1583 65.3119C44.2586 64.8738 45.6009 62.8083 45.1628 60.715L43.1736 51.2224C42.9723 50.2418 42.36 49.4559 41.4561 49.0248L35.2946 46.0622V37.4388H50.8234C52.7569 37.4388 54.3285 35.8672 54.3285 33.9339C54.3285 32.0006 52.7569 30.4219 50.8234 30.4219H36.2193V25.5956H53.1254C54.5998 25.5956 55.8029 24.3925 55.8029 22.9182V22.793C55.8029 21.3534 54.6762 20.1712 53.2299 20.1155ZM23.4512 14.114C23.4512 11.5756 25.5168 9.50323 28.0551 9.50323C30.6005 9.50323 32.6657 11.5756 32.6657 14.114C32.6657 16.6592 30.6005 18.7247 28.0551 18.7247C25.5168 18.7247 23.4512 16.6592 23.4512 14.114ZM50.8234 31.5485C52.1379 31.5485 53.2089 32.6195 53.2089 33.9339C53.2089 35.2482 52.1379 36.3192 50.8234 36.3192H34.7313C34.4254 36.3192 34.168 36.5695 34.168 36.8755V46.4099C34.168 46.6256 34.2929 46.8272 34.4878 46.9176L40.9692 50.0332C41.5604 50.3183 41.9427 50.812 42.0819 51.4518L44.064 60.9445C44.2168 61.6609 44.0779 62.398 43.6745 63.0169C43.2711 63.6359 42.6521 64.0601 41.9291 64.2131C40.4408 64.5261 38.9735 63.5663 38.6604 62.0781L37.1443 54.8178C37.1025 54.6439 36.9843 54.4978 36.8244 54.4214L30.976 51.7926C30.8993 51.7648 30.8229 51.7439 30.7465 51.7439H25.3704C25.294 51.7439 25.2176 51.7648 25.1412 51.7926L19.2925 54.4214C19.1326 54.4978 19.0144 54.6439 18.9726 54.8178L17.4565 62.0781C17.3037 62.7944 16.8792 63.4133 16.2605 63.8167C15.8082 64.1157 15.2866 64.2687 14.7583 64.2687C14.5637 64.2687 14.3759 64.2548 14.1881 64.2131C12.693 63.9001 11.7402 62.4328 12.0529 60.9445L14.035 51.4518C14.1742 50.812 14.5566 50.3183 15.1477 50.0332L21.6291 46.9176C21.824 46.8272 21.949 46.6256 21.949 46.4099V36.8755C21.949 36.5696 21.6919 36.3192 21.3859 36.3192H5.29348C3.97902 36.3192 2.90802 35.2482 2.90802 33.9339C2.90802 32.6195 3.97902 31.5485 5.29348 31.5485H23.2913L23.4234 31.7223C24.5154 33.2245 26.2051 34.0868 28.0551 34.0868C28.9868 34.0868 29.8701 33.8713 30.6558 33.4679C31.4487 33.0646 32.1441 32.4734 32.6936 31.7223L32.8257 31.5485H50.8234ZM19.4107 30.4219L22.276 28.1617L22.3595 28.9476C22.3873 29.2536 22.4498 29.5665 22.5333 29.8725L22.6794 30.4219H19.4107ZM23.4512 28.3565C23.4512 25.8181 25.5168 23.7457 28.0551 23.7457C30.6005 23.7457 32.6657 25.8181 32.6657 28.3565C32.6657 30.9017 30.6005 32.9672 28.0551 32.9672C25.5168 32.9672 23.4512 30.9017 23.4512 28.3565ZM54.6833 22.9182C54.6833 23.7735 53.9807 24.4759 53.1254 24.4759H35.6559C35.3432 24.4759 35.0929 24.7263 35.0929 25.0323V30.4219H33.4375L33.5839 29.8725C34.0634 28.1409 33.7089 26.3188 32.61 24.8793C31.5183 23.4467 29.8561 22.6261 28.0551 22.6261C25.6974 22.6261 23.5415 24.1074 22.7001 26.3188L22.6583 26.4301L17.5957 30.4219H12.4006L21.9143 20.9083C22.2135 20.6023 22.5751 20.4563 23.0132 20.4563H33.9038L53.1878 21.2352C54.0225 21.27 54.6833 21.9585 54.6833 22.793L54.6833 22.9182ZM49.5022 8.28622C49.4954 7.98022 49.2448 7.7368 48.9388 7.7368C48.786 7.7368 48.6468 7.79244 48.5425 7.9037C48.4312 8.00803 48.3755 8.15409 48.3755 8.3001L48.4172 11.4087L47.6244 10.3725C42.8191 4.12749 35.5449 0.539062 27.6795 0.539062C15.3009 0.539062 4.86936 9.38498 2.86625 21.576L2.65062 22.8764L1.25296 20.1434C1.1555 19.9486 0.960931 19.8374 0.752098 19.8374C0.668904 19.8374 0.58537 19.8582 0.501835 19.8999C0.223729 20.039 0.119483 20.3798 0.258365 20.651L2.60206 25.2478C2.69239 25.4217 2.84553 25.533 3.0401 25.5538C3.22789 25.5678 3.40888 25.4982 3.53384 25.3522L6.83036 21.3812C6.92782 21.27 6.97637 21.1239 6.96245 20.9779C6.94853 20.8249 6.87213 20.6928 6.76075 20.5954C6.52441 20.3937 6.16956 20.4285 5.96786 20.665L3.71483 23.3841L3.9583 21.8194C5.81505 10.143 15.7875 1.6587 27.6795 1.6587C35.058 1.6587 42.1722 5.15676 46.6997 11.0193L47.7011 12.3128L44.4535 10.9636C44.175 10.8524 43.8416 10.9845 43.7231 11.2696C43.6677 11.4087 43.6677 11.5617 43.7231 11.7008C43.7787 11.8399 43.8901 11.9442 44.0222 12.0068L48.7928 13.9749C48.9738 14.0444 49.1684 14.0305 49.3283 13.9192C49.4814 13.8149 49.5718 13.641 49.5718 13.4533L49.5022 8.28622Z" fill="#6E0147"></path></svg>