<svg id="Ebene_1" data-name="Ebene 1" xmlns="http://www.w3.org/2000/svg" xmlns:xlink="http://www.w3.org/1999/xlink"
     viewBox="0 0 389.9 389.6" preserveAspectRatio="none">
    <defs>
        <style>
            .cls-1{fill:url(#Unbenannter_Verlauf);}.cls-2{fill:#fff;}.cls-3{fill:url(#Unbenannter_Verlauf_2);}.cls-4{fill:url(#Unbenannter_Verlauf_3);}
        </style>
        <linearGradient id="Unbenannter_Verlauf" x1="253.85" y1="403.59" x2="253.85" y2="820.38"
                        gradientTransform="translate(0 -339.89)" gradientUnits="userSpaceOnUse">
            <stop offset="0" stop-color="#4f4f4e"/>
            <stop offset="0.26" stop-color="#313130"/>
            <stop offset="0.55" stop-color="#161616"/>
            <stop offset="0.8" stop-color="#060606"/>
            <stop offset="1"/>
        </linearGradient>
        <linearGradient id="Unbenannter_Verlauf_2" x1="214.9" y1="353.49" x2="286.3" y2="353.49"
                        gradientTransform="matrix(0.16, 0.99, 0.99, -0.16, -138.47, -44.34)"
                        xlink:href="#Unbenannter_Verlauf"/>
        <linearGradient id="Unbenannter_Verlauf_3" x1="135.26" y1="203.49" x2="365.84" y2="203.49"
                        gradientTransform="matrix(1, 0, 0, -1, 0, 499.89)" xlink:href="#Unbenannter_Verlauf"/>
    </defs>
    <path class="cls-1"
          d="M201.6,443.2H168.2c-27.7,0-51.9-9.6-71.9-28.4a101.84,101.84,0,0,1-30.6-56.2,107.42,107.42,0,0,1-1.7-19V286.9c0-39.5,0-80.3.1-120.5.1-26.7,9.5-50.3,28.1-70.1a101.58,101.58,0,0,1,55.6-30.7,104,104,0,0,1,20.9-1.9H339c25.9,0,48.8,8.3,68.1,24.6a102,102,0,0,1,34.5,58.2,100.5,100.5,0,0,1,2.1,20.8V340a99.13,99.13,0,0,1-11,46.3c-15.9,30.4-41,49.1-74.7,55.6a95.89,95.89,0,0,1-17.6,1.6H252.6Z"
          transform="translate(-59.2 -58.6)"/>
    <path class="cls-2"
          d="M339.1,68.6c24.4,0,46.2,7.6,64.8,23.4,17.3,14.6,28.2,33.2,32.9,55.4a93.42,93.42,0,0,1,2,19.7q0,86.4.1,172.7a94.41,94.41,0,0,1-10.4,44q-22.8,43.65-71.2,53a85.05,85.05,0,0,1-16.7,1.5H168.4c-26.4,0-49.3-9-68.4-27.1-15.5-14.6-25.1-32.5-29.1-53.5a99.85,99.85,0,0,1-1.6-18.1c0-57.7-.1-115.4.1-173.2.1-25.7,9.2-48,26.7-66.7A96.5,96.5,0,0,1,149,70.5a102.64,102.64,0,0,1,20-1.8h96.9c24.2-.1,48.7-.1,73.2-.1h0m0-10H168.9a114.49,114.49,0,0,0-22,2A106.79,106.79,0,0,0,88.7,92.8c-19.4,20.8-29.3,45.5-29.4,73.5-.1,40.2-.1,81-.1,120.5v52.7a109.41,109.41,0,0,0,1.8,20c4.4,23.2,15.1,43,32.1,58.9,20.9,19.7,46.3,29.8,75.3,29.8H340.7a99.15,99.15,0,0,0,18.6-1.6c35.3-6.8,61.6-26.3,78.2-58.2a103.74,103.74,0,0,0,11.6-48.6V167.1a103.33,103.33,0,0,0-2.2-21.8,106.53,106.53,0,0,0-36.2-61c-20.5-17.1-44.5-25.7-71.6-25.7Z"
          transform="translate(-59.2 -58.6)"/>
    <circle id="Oval" class="cls-3" cx="250.6" cy="146.4" r="35.7" transform="translate(6.75 311.71) rotate(-80.78)"/>
    <path id="Shape" class="cls-4"
          d="M350.6,203.6l-75,6.7c-2.8.2-5.5.4-8.3.4H233.9a76.87,76.87,0,0,1-8.3-.4l-75-6.7a14.24,14.24,0,0,0-2.2,28.4l60.6,5.5a14.25,14.25,0,0,1,13,14.2v16.4a33.8,33.8,0,0,1-2.5,13l-34.5,88a14.3,14.3,0,0,0,26.1,11.7l33-80.1a7,7,0,0,1,13-.1l33,80.1A14.3,14.3,0,1,0,316.2,369l-34.5-87.9a36.61,36.61,0,0,1-2.5-13V251.7a14.18,14.18,0,0,1,13-14.2l60.6-5.5a14.24,14.24,0,0,0-2.2-28.4Z"
          transform="translate(-59.2 -58.6)"/>
    <path id="Shape-2" data-name="Shape" class="cls-2"
          d="M250.6,189.3a42.9,42.9,0,1,1,42.9-42.9A42.89,42.89,0,0,1,250.6,189.3Zm0-71.5a28.68,28.68,0,1,0,20.2,8.4A29.06,29.06,0,0,0,250.6,117.8Z"
          transform="translate(-59.2 -58.6)"/>
    <path id="Shape-3" data-name="Shape" class="cls-2"
          d="M303.1,396.4a21.46,21.46,0,0,1-19.5-12.6l-33.1-80.3-32.7,80.1a21.41,21.41,0,0,1-37.1,4.1,21.57,21.57,0,0,1-2.1-21.5L213,278.7a26.63,26.63,0,0,0,1.9-10.4V251.9a7.09,7.09,0,0,0-6.5-7.1l-60.6-5.5a21.41,21.41,0,0,1,3.3-42.7l75.1,6.7c2.5.2,5.1.3,7.7.3h33.4c2.6,0,5.1-.1,7.7-.3l75-6.7h.1a21.41,21.41,0,0,1,3.3,42.7l-60.5,5.5a7.09,7.09,0,0,0-6.5,7.1v16.4a28.29,28.29,0,0,0,2,10.4l34.5,87.9a21.36,21.36,0,0,1-1.8,20.2A22.06,22.06,0,0,1,303.1,396.4ZM250.6,289.3a14.11,14.11,0,0,1,13.1,8.8l33,80.1a7.62,7.62,0,0,0,3.9,3.6,7.13,7.13,0,0,0,9-9.6L275,283.9a42.14,42.14,0,0,1-3-15.7V251.8a21.27,21.27,0,0,1,19.5-21.3l60.6-5.5a7,7,0,0,0,4.9-2.4,6.61,6.61,0,0,0,1.7-5.2,7,7,0,0,0-7.6-6.6l-74.9,6.7a88.33,88.33,0,0,1-8.9.4H233.9a87,87,0,0,1-8.9-.4l-75-6.7a7.12,7.12,0,0,0-1,14.2l60.7,5.5a21.27,21.27,0,0,1,19.5,21.3v16.4a42.14,42.14,0,0,1-3,15.7l-34.5,87.9a7.09,7.09,0,0,0,.3,7.3,7.19,7.19,0,0,0,6.6,3.2,7,7,0,0,0,5.9-4.3l32.9-79.9A14,14,0,0,1,250.6,289.3Z"
          transform="translate(-59.2 -58.6)"/>
</svg>