<?xml version="1.0" encoding="utf-8"?>
<!-- Generator: Adobe Illustrator 25.2.1, SVG Export Plug-In . SVG Version: 6.00 Build 0)  -->
<svg version="1.1" id="Ebene_1" xmlns="http://www.w3.org/2000/svg" xmlns:xlink="http://www.w3.org/1999/xlink" x="0px" y="0px"
	 viewBox="0 0 70 70" style="enable-background:new 0 0 70 70;" xml:space="preserve">
<style type="text/css">
	.st0{fill:#FFFFFF;}
	.st1{fill:#1D1D1B;}
</style>
<g id="eye-able-black-white_2_" transform="translate(70 70) rotate(180)">
	<path id="Path_549" class="st0" d="M13.1,0h43.8C64.1,0,70,5.9,70,13.1v43.8C70,64.1,64.1,70,56.9,70H13.1C5.9,70,0,64.1,0,56.9
		V13.1C0,5.9,5.9,0,13.1,0z"/>
	<path id="Path_550" class="st1" d="M54.8,53.1l8.4-17.7l-7.9-19.3L15.6,54.4c0,0,10.3,8.7,19.7,7.9S54.8,53.1,54.8,53.1z"/>
	<path id="Path_551" class="st0" d="M15,16.2L6.5,33.8l8,19.3l39.7-38.3c0,0-10.3-8.7-19.7-7.9S15,16.2,15,16.2z"/>
	<g id="Group_250" transform="translate(4.648 4.648)">
		<g id="Group_249">
			<path id="Path_552" d="M30.4,60.7c16.8,0,30.4-13.6,30.4-30.3S47.1,0,30.4,0C13.6,0,0,13.6,0,30.3c0,0,0,0,0,0
				C0,47.1,13.6,60.7,30.4,60.7z M30.4,4.7C44.5,4.7,56,16.2,56,30.4S44.5,56,30.4,56S4.7,44.5,4.7,30.4C4.7,16.2,16.2,4.7,30.4,4.7
				z"/>
		</g>
	</g>
	<g id="Group_252" transform="translate(13.209 14.549)">
		<g id="Group_251">
			<path id="Path_553" d="M7,38.7L41.4,4.4c1.9-1.9,2.7-4.2,1.8-5.1S40-0.9,38.1,1L3.7,35.4c-1.9,1.9-2.7,4.2-1.8,5.1
				S5.1,40.6,7,38.7z"/>
		</g>
	</g>
</g>
</svg>
